<svg width="1273" height="318" viewBox="0 0 1273 318" fill="none" xmlns="http://www.w3.org/2000/svg">
<path d="M911.413 209.575V206.485H940.24V196.189H1008.06V209.575H1020.79V196.189H1058.94V209.575H1082.68V299.133H894.452V209.575H911.413Z" fill="#E7E9EA"/>
<path d="M760.664 86.5695V72.2024H748.5V77.6577H738.032V86.5695H729.543V81.3984H722.192V77.6577H703.515V86.5695H670.687V299.133H762.931V86.5695H760.664Z" fill="#E7E9EA"/>
<path d="M897.804 147.889L893.559 137.84H841.775L837.539 147.889H832.301V299.133H903.042V147.889H897.804Z" fill="#E7E9EA"/>
<path d="M857.253 209.566V203.918H855.104V199.92H851.843V192.274L844.673 174.551H762.426L755.246 192.274V199.92H751.995V203.918H749.846V209.566H751.995V212.875H749.846V218.523H751.995V221.833H749.846V227.481H751.995V230.791H749.846V236.439H751.995V239.748H749.846V245.387H751.995V248.706H749.846V254.345H751.995V257.664H749.846V263.302H751.995V266.612H749.846V272.26H751.995V275.57H749.846V281.218H751.995V284.528H749.846V290.175H751.995V293.485H749.846V299.133H857.253V293.485H855.104V290.175H857.253V284.528H855.104V281.218H857.253V275.57H855.104V272.26H857.253V266.612H855.104V263.302H857.253V257.664H855.104V254.345H857.253V248.706H855.104V245.387H857.253V239.748H855.104V236.439H857.253V230.791H855.104V227.481H857.253V221.833H855.104V218.523H857.253V212.875H855.104V209.566H857.253Z" fill="white"/>
<path d="M1204.21 193.254V180.794H1174.81V170.737H1151.43V198.04H1143.78V299.133H1151.43H1158.69H1171.18H1174.81H1200.58H1204.21H1229.59V193.254H1204.21Z" fill="#E7E9EA"/>
<path d="M209.54 193.74L208.339 188.661H120.692L119.491 193.74H112.158V299.133H216.873V193.74H209.54Z" fill="#E7E9EA"/>
<path d="M588.495 176.65L586.084 170.737H410.166L407.746 176.65H393.034V299.133H603.216V176.65H588.495Z" fill="#E7E9EA"/>
<path d="M613.124 146.44V142.883H600.535V104.952H597.563V142.883H587.936V146.44H583.692V299.133H640.001V146.44H613.124Z" fill="#E7E9EA"/>
<path d="M890.28 273.259V263.595L841.376 241.123H765.714L716.81 263.595V273.259H719.393V277.706H716.81V299.132H890.28V277.706H887.706V273.259H890.28Z" fill="white"/>
<path d="M717.659 162.301V149.209H720.323V143.79H685.635V107.657H683.404V143.79H655.823V149.209H672.955V154.627H642.041V162.301H627.357V299.133H735.893V162.301H717.659Z" fill="white"/>
<path d="M292.59 122.702V116.578H290.17V111.379H286.494V101.257H270.473V97.003H258.146V85.2856H256.836V97.003H256.05V91.1443H253.955V97.003H249.494V101.257H194.946V111.379H191.27V116.578H188.85V122.702H185.897V299.133H295.544V122.702H292.59Z" fill="white"/>
<path d="M364.171 154.728V152.161H361.416V150.529H350.85V152.161H347.174V154.728H327.64V299.133H378.196V154.728H364.171Z" fill="white"/>
<path d="M501.056 130.266L496.604 104.622H440.845V130.266H435.616V299.133H510.773V130.266H501.056Z" fill="white"/>
<path d="M617.314 242.425V236.503V233.688H614.053V234.669L550.068 220.018V195.84C550.375 195.895 550.682 195.941 550.89 196.17C551.594 196.94 554.023 197.078 554.8 197.371C555.613 197.683 557.455 198.847 558.223 199.269C559.632 200.039 562.477 201.149 562.558 200.892C563.47 198.169 561.917 197.078 563.055 194.978C563.524 194.107 558.205 194.19 556.778 192.503C555.785 191.32 551.504 188.102 550.059 187.937V185.966H548.063V220.018L517.754 226.958V224.253H511.026V228.498L484.086 234.669V233.688H480.826V242.425H470.386V239.134H466.647V232.808H459.91V242.425H439.473V299.133H658.667V242.425H617.314ZM550.212 188.725C550.158 188.826 550.935 191.247 550.989 192.365C551.016 192.915 551.052 193.456 550.926 193.997C550.835 194.401 550.709 194.758 550.709 195.18C550.709 195.189 550.709 195.207 550.709 195.217C550.555 195.162 550.239 195.097 550.077 195.061V188.698C550.122 188.698 550.167 188.707 550.212 188.716V188.725Z" fill="white"/>
<path d="M190.024 234.394V174.083H190.033L186.981 170.012V142.626H186.99L184.082 138.757V123.904H182.609V97.0856H182.619L179.566 93.0239L176.522 97.0856H176.532V106.951H174.527V108.363H171.646V106.951H169.451V108.363H166.57V106.951H164.385V108.363H161.495V106.951H159.309V108.363H156.428V106.951H154.234V108.363H151.353V106.951H149.348V97.0856H149.366L146.313 93.0239L143.261 97.0856H143.27V123.904H141.798V138.757L138.89 142.626H138.899V170.012L135.846 174.083H135.855V234.394L133.182 237.951H133.191V299.133H192.688V237.951H192.697L190.024 234.394Z" fill="white"/>
<path d="M794.866 290.038C783.722 283.354 776.967 276.184 776.56 270.279C776.407 268.061 778.195 263.779 781.564 258.333H774.61C766.211 242.856 727.774 225.858 681.616 225.858C635.458 225.858 597.021 242.865 588.631 258.333H581.677C585.055 263.779 586.834 268.061 586.68 270.279C586.274 276.175 579.519 283.354 568.374 290.038H559.695V299.133H803.536V290.038H794.857H794.866Z" fill="white"/>
<path d="M1129.08 254.583V235.448H1126.05V211.564H1126.9V208.914H1125.71V196.408H1126.04L1125.71 194.483V193.951H1125.62L1123.67 182.811H1123.04L1121.09 193.951H1101.1L1089.41 182.087L1077.73 193.951H1067.02V208.905H1064.64V167.252H1060.09V170.59H1056.29V167.252H1052.78V170.59H1048.97V167.252H1045.46V170.59H1041.66V167.252H1038.14V170.59H1034.34V167.252H1030.19V164.319C1030.19 163.695 1029.99 163.081 1029.64 162.512H1028.02V160.853C1027.18 160.239 1026.12 159.698 1024.9 159.239V162.091C1023.77 161.559 1022.48 161.137 1021.09 160.834V158.24C1020.1 158.066 1019.05 157.937 1017.97 157.873V160.376C1017.35 160.33 1016.71 160.303 1016.07 160.303C1015.55 160.303 1015.03 160.321 1014.52 160.358V122.152C1014.93 122.235 1015.39 122.272 1015.68 122.602C1016.54 123.564 1019.45 123.243 1020.42 123.61C1021.43 123.995 1023.1 126.187 1024.04 126.718C1025.77 127.69 1029.95 128.855 1030.05 128.543C1031.18 125.123 1029.74 124.371 1031.15 121.731C1031.72 120.64 1024.69 120.126 1022.94 118.008C1021.69 116.495 1016.27 112.351 1014.57 112.26C1014.56 112.26 1014.54 112.26 1014.51 112.26V110.142H1013.91V157.891C1012.92 157.965 1011.95 158.075 1011.03 158.24V160.834C1009.64 161.137 1008.36 161.568 1007.23 162.091V159.239C1006 159.688 1004.95 160.239 1004.11 160.853V162.512H1002.49C1002.13 163.09 1001.93 163.695 1001.93 164.319V165.721H1001.29V170.306H1001.93V174.01H1001.29V178.594H1001.93V182.289H1001.29V186.873H1001.93V190.568H1001.29V195.152H1001.93V227.242H1001.29V231.827H1001.93V263.586H999.943V299.133H1135.38V254.583H1129.04H1129.08ZM1014.53 113.204C1014.53 113.204 1014.56 113.204 1014.59 113.213C1014.67 113.213 1014.76 113.231 1014.84 113.25C1014.77 113.378 1015.73 116.413 1015.8 117.825C1015.83 118.512 1015.87 119.2 1015.73 119.869C1015.62 120.383 1015.47 120.823 1015.46 121.355C1015.46 121.373 1015.46 121.382 1015.46 121.401C1015.2 121.309 1014.57 121.181 1014.53 121.181V113.204Z" fill="white"/>
<path d="M1023.26 299.133V228.966H963.884V222.301L961.472 219.623V189.816L959.558 186.754V161.458L959.115 160.752V142.287L957.986 148.008L956.84 134.255L955.693 148.008L954.564 142.287V153.243H954.275V151.822H948.856V153.243H948.007V151.822H942.859L942.345 146.504V141.507H943.266V141.104H942.345V138.693H941.821V141.104H940.9V141.507H941.821V146.504L941.297 151.822H936.312V153.243H935.463V151.822H930.044V153.243H929.602V142.287L928.473 148.008L927.326 134.255L926.179 148.008L925.05 142.287V160.092L924.201 161.449V186.745L922.277 189.807V219.614L919.875 222.291V252.896L918.295 254.656V299.115H1023.25L1023.26 299.133ZM952.243 161.183H951.574V157.442H952.243V161.183ZM954.076 161.183H953.218V157.076H954.076V161.183ZM949.831 152.812H953.299V156.085H949.831V152.812ZM949.741 157.076H950.599V161.183H949.741V157.076ZM948.097 154.233H948.766V161.183H948.097V154.233ZM945.289 161.183H944.62V157.442H945.289V161.183ZM947.122 161.183H946.264V157.076H947.122V161.183ZM943.564 152.812H947.032V156.085H943.564V152.812ZM943.645 157.076V159.872L943.374 157.076H943.645ZM939.707 161.183H939.039V157.442H939.707V161.183ZM940.683 158.277V157.076H940.8L940.683 158.277ZM937.296 152.812H940.764V156.085H937.296V152.812ZM937.206 157.076H938.064V161.183H937.206V157.076ZM935.562 154.233H936.231V161.183H935.562V154.233ZM932.753 161.183H932.085V157.442H932.753V161.183ZM934.587 161.183H933.729V157.076H934.587V161.183ZM931.029 152.812H934.497V156.085H931.029V152.812ZM930.252 157.076H931.11V161.183H930.252V157.076Z" fill="white"/>
<path d="M1028.14 293.384V288.378H1027.16V257.691H1027.48V256.701H1028V256.169H1027.16V254.005H1027.48V253.51H1027.8V252.804H1027.17V249.119H1027.49V246.808H1028.47V246.185H1029.18V244.443H1028.95V243.168C1028.26 243.168 1027.69 243.737 1027.69 244.443H1027.31C1027.25 243.948 1027 243.581 1026.7 243.581C1026.41 243.581 1026.15 243.957 1026.1 244.443H1025.95V243.379H1025.58L1017.32 241.674V241.096H1016.93V240.858H1016.64V239.583H1016.77V239.354H1016.96V239.07H1017.07V238.217H1016.96V237.089C1016.5 237.089 1016.13 237.465 1016.13 237.933C1016.13 238.034 1016.15 238.126 1016.18 238.217H1015.96L1015.84 238.181C1015.84 237.942 1015.65 237.759 1015.42 237.759C1015.28 237.759 1015.16 237.832 1015.08 237.942L1011.41 236.714V236.283H1011.13C1011.14 236.173 1011.15 236.072 1011.13 235.962C1011.11 235.916 1011.07 235.87 1011.04 235.824C1010.98 235.714 1010.98 235.595 1010.98 235.476C1010.98 235.182 1011.03 234.862 1010.96 234.568C1011.08 234.412 1011.22 234.266 1011.3 234.073C1011.41 233.798 1011.36 233.523 1011.35 233.239C1011.35 233.202 1011.32 233.129 1011.3 233.129C1011.27 233.129 1011.22 233.184 1011.22 233.211C1011.1 233.514 1010.98 233.798 1010.81 234.073C1010.81 234.055 1010.81 234.036 1010.81 234.018C1010.84 233.945 1010.84 233.862 1010.81 233.761C1010.77 233.679 1010.71 233.642 1010.63 233.633C1010.56 233.633 1010.48 233.67 1010.45 233.761C1010.41 233.853 1010.41 233.935 1010.45 234.018C1010.45 234.036 1010.45 234.055 1010.45 234.073C1010.29 233.807 1010.16 233.514 1010.04 233.211C1010.03 233.175 1009.98 233.129 1009.96 233.129C1009.94 233.129 1009.92 233.202 1009.92 233.239C1009.92 233.523 1009.87 233.798 1009.97 234.073C1010.04 234.266 1010.19 234.412 1010.3 234.568C1010.24 234.862 1010.3 235.182 1010.29 235.476C1010.29 235.604 1010.29 235.714 1010.22 235.824C1010.2 235.87 1010.16 235.916 1010.14 235.962C1010.1 236.072 1010.11 236.182 1010.14 236.283H1009.85V236.714L1006.19 237.942C1006.11 237.832 1005.99 237.759 1005.84 237.759C1005.61 237.759 1005.43 237.951 1005.43 238.181L1005.31 238.217H1005.08C1005.12 238.126 1005.14 238.034 1005.14 237.933C1005.14 237.465 1004.77 237.089 1004.31 237.089V238.217H1004.2V239.07H1004.31V239.354H1004.5V239.583H1004.62V240.858H1004.33V241.096H1003.95V241.674L1000.3 242.426H928.671L925.023 241.674V241.096H924.634V240.858H924.345V239.583H924.472V239.354H924.661V239.07H924.77V238.217H924.661V237.089C924.201 237.089 923.831 237.465 923.831 237.933C923.831 238.034 923.849 238.126 923.885 238.217H923.659L923.542 238.181C923.542 237.942 923.352 237.759 923.126 237.759C922.982 237.759 922.864 237.832 922.783 237.942L919.116 236.714V236.283H918.827C918.845 236.173 918.854 236.072 918.827 235.962C918.809 235.916 918.773 235.87 918.746 235.824C918.683 235.714 918.683 235.595 918.683 235.476C918.674 235.182 918.728 234.862 918.665 234.568C918.782 234.412 918.927 234.266 918.999 234.073C919.107 233.798 919.062 233.523 919.062 233.239C919.062 233.202 919.035 233.129 919.008 233.129C918.981 233.129 918.936 233.184 918.927 233.211C918.818 233.514 918.692 233.798 918.52 234.073C918.52 234.055 918.52 234.036 918.52 234.018C918.547 233.945 918.547 233.862 918.52 233.761C918.484 233.679 918.421 233.642 918.34 233.633C918.267 233.633 918.195 233.67 918.159 233.761C918.123 233.853 918.123 233.935 918.159 234.018C918.159 234.036 918.159 234.055 918.159 234.073C917.996 233.807 917.87 233.514 917.753 233.211C917.744 233.175 917.698 233.129 917.671 233.129C917.644 233.129 917.626 233.202 917.617 233.239C917.617 233.523 917.572 233.798 917.671 234.073C917.744 234.266 917.888 234.412 918.006 234.568C917.942 234.862 918.006 235.182 917.987 235.476C917.987 235.604 917.987 235.714 917.924 235.824C917.897 235.87 917.861 235.916 917.843 235.962C917.807 236.072 917.816 236.182 917.843 236.283H917.554V236.714L913.887 237.942C913.815 237.832 913.689 237.759 913.544 237.759C913.309 237.759 913.129 237.951 913.129 238.181L913.011 238.217H912.786C912.822 238.126 912.84 238.034 912.84 237.933C912.84 237.465 912.469 237.089 912.009 237.089V238.217H911.9V239.07H912.009V239.354H912.199V239.583H912.325V240.858H912.036V241.096H911.648V241.674L903.384 243.379H903.023V244.443H902.869C902.815 243.948 902.562 243.581 902.264 243.581C901.966 243.581 901.713 243.957 901.659 244.443H901.28C901.28 243.737 900.711 243.168 900.016 243.168V244.443H899.79V246.185H900.494V246.808H901.47V249.119H901.786V252.804H901.163V253.51H901.479V254.005H901.795V256.169H900.955V256.701H901.479V257.691H901.795V288.378H900.819V293.384H899.383V299.133H1029.73V293.384H1028.29H1028.14Z" fill="white"/>
<path d="M1214.6 299.133V208.282C1214.67 207.355 1214.62 206.439 1214.46 205.531C1212.22 192.686 1187.74 186.341 1159.77 191.375C1131.81 196.399 1112.38 210.179 1112.98 223.657C1112.98 223.804 1113 224.226 1113 224.226V239.629H1105.6V233.752H1072.93V299.151H1214.6V299.133Z" fill="white"/>
<path d="M301.342 280.722H299.671V271.682H301.342V269.913H279.433C269.823 269.913 260.937 268.831 253.757 267.006C251.355 266.392 249.133 265.704 247.155 264.943L246.388 264.641C245.692 264.357 245.033 264.072 244.401 263.77C241.791 262.541 239.741 261.184 238.368 259.772L237.754 259.14L237.14 259.772C235.767 261.175 233.717 262.541 231.107 263.77C230.384 264.109 229.626 264.439 228.822 264.76L228.479 264.898C224.984 266.245 220.775 267.382 216.052 268.235C210.073 269.308 203.273 269.913 196.066 269.913H104.165C94.5561 269.913 85.6694 268.831 78.4897 267.006C74.8953 266.099 71.7344 264.998 69.1244 263.77C66.5144 262.541 64.4643 261.184 63.0916 259.772L62.4774 259.14L61.8633 259.772C60.4906 261.175 58.4405 262.541 55.8305 263.77C51.92 265.613 46.7542 267.153 40.7756 268.226C34.797 269.298 27.9965 269.904 20.7897 269.904H0V271.673H0.5509V280.713H0V283.601H57.9257V299.115H60.3732V283.601H63.0916L63.3444 284.023V283.601H63.5792V299.115H66.0267V283.601H80.6029L80.8468 284.005V283.601H234.196V299.115H236.643V283.601H239.849V299.115H242.297V283.601H301.342V280.713V280.722ZM2.07716 280.722V274.02L8.48024 280.722H2.07716ZM9.30208 279.375L1.95976 271.691H9.30208V279.375ZM10.8283 271.682H17.8817L10.8283 279.32V271.682ZM18.0533 280.722H11.614L18.0533 273.745V280.722ZM19.5795 280.722V273.663L26.4974 280.722H19.5795ZM26.8135 278.852L19.7872 271.682H20.7897C22.8307 271.682 24.8447 271.636 26.8135 271.536V278.843V278.852ZM28.3307 271.462C30.6246 271.325 32.8553 271.123 35.0137 270.875L28.3307 278.669V271.471V271.462ZM35.5646 280.722H28.5836L35.5646 272.581V280.722ZM37.0819 280.722V272.663L43.6385 280.722H37.0819ZM44.3158 279.127L37.3528 270.564C39.7822 270.224 42.1122 269.803 44.3158 269.326V279.118V279.127ZM45.8421 268.987C46.1943 268.904 46.5465 268.822 46.8897 268.73C48.9939 268.198 50.9627 267.602 52.778 266.942L45.8511 278.513V268.977L45.8421 268.987ZM53.067 280.722H46.2936L53.067 269.408V280.722ZM54.5933 280.722V269.408L61.3666 280.722H54.5933ZM61.8182 278.522L54.5842 266.447V266.254C55.2616 265.979 55.9208 265.686 56.553 265.393C58.6211 264.421 60.3912 263.357 61.8182 262.193V278.531V278.522ZM70.5784 280.722H63.8141L70.5784 269.482V280.722ZM70.5784 266.52L63.3444 278.531V262.358C64.7262 263.449 66.424 264.457 68.3928 265.383C69.0882 265.714 69.8198 266.025 70.5784 266.328V266.52ZM72.0956 280.722V269.482L78.8599 280.722H72.0956ZM79.3296 278.531L72.4027 267.025C74.516 267.776 76.837 268.455 79.3296 269.042V278.54V278.531ZM80.8468 269.381C81.8312 269.592 82.8336 269.793 83.8632 269.977C85.1456 270.206 86.4551 270.417 87.8098 270.6L80.8468 279.595V269.381ZM88.0807 280.722H81.9125L88.0807 272.746V280.722ZM89.607 280.722V272.746L95.7753 280.722H89.607ZM96.8319 279.595L90.0947 270.885C92.2712 271.141 94.5199 271.334 96.8319 271.462V279.586V279.595ZM98.3582 271.554C100.255 271.636 102.196 271.691 104.165 271.691H105.43L98.3582 279.796V271.554ZM105.583 280.722H99.5683L105.583 273.828V280.722ZM107.109 280.722V273.745L113.549 280.722H107.109ZM114.343 271.792V279.32L107.29 271.682H122.905L115.861 279.136V271.792H114.334H114.343ZM123.094 280.722H116.475L123.094 273.708V280.722ZM124.612 280.722V273.745L131.051 280.722H124.612ZM131.846 279.32L124.792 271.682H131.846V279.32ZM133.372 271.682H140.064L133.372 279.255V271.682ZM134.121 280.722L140.38 273.635L140.588 280.722H134.121ZM142.105 280.722L141.888 273.406L148.571 280.722H142.105ZM149.357 279.301L142.403 271.682H149.357V279.301ZM150.874 271.682H157.124L150.874 279.164V271.682ZM158.108 280.722H151.579L158.108 272.892V280.722ZM159.625 280.722V272.984L165.767 280.722H159.625ZM166.859 279.641L160.556 271.691H166.859V279.641ZM168.377 271.682H175.141L168.377 279.732V271.682ZM175.62 280.722H169.542L175.755 273.323L175.611 280.722H175.62ZM177.146 280.722L177.29 273.314L183.278 280.722H177.146ZM184.362 279.641L177.932 271.691H184.362V279.641ZM185.888 271.682H192.878L185.888 279.971V271.682ZM193.122 280.722H187.261L193.122 273.773V280.722ZM194.639 280.722V273.736L200.69 280.722H194.639ZM201.873 279.751L194.892 271.691H196.066C198.035 271.691 199.968 271.646 201.873 271.563V279.76V279.751ZM203.39 271.471C205.766 271.334 208.068 271.132 210.299 270.866L203.39 279.595V271.462V271.471ZM210.624 280.722H204.456L210.624 272.929V280.722ZM212.142 280.722V272.975L218.111 280.722H212.142ZM219.375 279.851L212.259 270.619C214.742 270.279 217.127 269.858 219.375 269.381V279.851ZM220.902 269.033C221.326 268.932 221.751 268.831 222.166 268.721C223.936 268.272 225.607 267.776 227.169 267.245L220.902 278.513V269.033ZM228.136 280.722H221.417L228.136 268.657V280.722ZM229.662 280.722V269.418L235.948 280.722H229.662ZM236.887 279.265L229.689 266.319C230.439 266.016 231.161 265.704 231.847 265.383C233.807 264.457 235.505 263.449 236.896 262.358V279.265H236.887ZM238.404 262.184C239.831 263.348 241.601 264.412 243.669 265.383C244.238 265.649 244.843 265.915 245.457 266.172L238.404 277.678V262.193V262.184ZM245.638 280.722H238.404V280.594L245.638 268.794V280.713V280.722ZM247.155 280.722V269.033L253.676 280.722H247.155ZM254.389 278.861L247.815 267.07C249.828 267.786 252.032 268.427 254.389 268.987V278.861ZM255.915 269.335C256.972 269.564 258.047 269.775 259.158 269.977C260.422 270.206 261.713 270.408 263.041 270.591L255.924 279.439V269.326L255.915 269.335ZM263.14 280.722H256.846L263.14 272.892V280.722ZM264.667 280.722V272.59L270.844 280.722H264.667ZM271.892 279.576L265.281 270.875C267.421 271.123 269.625 271.325 271.892 271.453V279.567V279.576ZM273.418 271.545C275.387 271.636 277.401 271.691 279.442 271.691H280.092L273.418 279.42V271.545ZM280.652 280.722H274.312L280.652 273.378V280.722ZM282.169 280.722V273.397L288.428 280.722H282.169ZM289.403 279.503L282.72 271.682H289.403V279.503ZM290.92 271.682H297.558L290.92 279.494V271.682ZM298.154 280.722H291.887L298.154 273.351V280.722Z" fill="white"/>
<path d="M470.549 251.878H470.847L472.201 248.724H472.4L473.908 246.79H470.251V244.653H470.955L471.109 243.737H471.659L471.813 242.315H470.494L469.131 237.896V232.908H467.595L466.304 228.737H453.218L451.267 227.16H429.737V222.493H430.216V221.154H430.676V220.549H430.333C430.333 220.467 430.297 220.393 430.243 220.329V220.082C430.243 219.972 430.179 219.88 430.08 219.834C430.08 219.807 430.08 219.788 430.08 219.761C430.098 219.733 430.116 219.706 430.116 219.669V218.193C430.252 218.138 430.342 218 430.342 217.854C430.342 217.652 430.189 217.496 429.999 217.487C430.189 217.487 430.342 217.331 430.342 217.129C430.342 216.928 430.189 216.781 429.999 216.781C429.809 216.781 429.656 216.937 429.656 217.129C429.656 217.194 429.674 217.249 429.701 217.304H426.739V215.36H426.955V214.801C427.271 214.654 427.443 214.489 427.443 214.306C427.443 214.122 427.253 213.948 426.919 213.801C426.82 213.645 426.739 213.471 426.675 213.288C426.567 212.967 426.513 212.618 426.459 212.316C426.269 211.234 425.926 210.271 424.95 209.492C424.499 209.134 423.966 208.869 423.632 208.483C423.28 208.08 423 204.202 422.864 203.377C423.18 203.322 423.397 203.221 423.397 203.102C423.397 202.973 423.126 202.863 422.756 202.817C422.756 202.808 422.756 202.79 422.756 202.781C423.135 202.735 423.406 202.625 423.406 202.496C423.406 202.359 423.099 202.24 422.684 202.203C422.629 201.589 422.62 200.956 422.629 200.333C422.629 200.158 422.629 199.993 422.629 199.819C422.909 199.792 423.117 199.7 423.117 199.59C423.117 199.48 422.909 199.388 422.629 199.361C422.629 198.701 422.611 198.04 422.611 197.39L422.431 196.812L422.259 197.39C422.259 198.05 422.25 198.71 422.241 199.361C421.961 199.388 421.753 199.48 421.753 199.59C421.753 199.7 421.961 199.792 422.241 199.819C422.241 199.993 422.241 200.158 422.241 200.333C422.241 200.965 422.241 201.589 422.178 202.203C421.762 202.24 421.455 202.359 421.455 202.496C421.455 202.625 421.726 202.744 422.106 202.781C422.106 202.79 422.106 202.808 422.106 202.817C421.726 202.863 421.464 202.973 421.464 203.102C421.464 203.221 421.681 203.322 421.997 203.377C421.862 204.202 421.582 208.08 421.23 208.483C420.895 208.878 420.363 209.134 419.911 209.492C418.936 210.271 418.593 211.225 418.403 212.316C418.349 212.628 418.295 212.967 418.186 213.288C418.123 213.471 418.051 213.645 417.942 213.801C417.608 213.957 417.419 214.131 417.419 214.306C417.419 214.48 417.599 214.654 417.906 214.801V215.36H418.123V217.304H415.161C415.188 217.249 415.206 217.194 415.206 217.129C415.206 216.937 415.052 216.781 414.863 216.781C414.673 216.781 414.52 216.937 414.52 217.129C414.52 217.322 414.673 217.478 414.863 217.478C414.673 217.487 414.52 217.652 414.52 217.854C414.52 218.01 414.61 218.138 414.745 218.193V219.669C414.745 219.669 414.754 219.733 414.781 219.761C414.781 219.788 414.781 219.807 414.781 219.834C414.691 219.871 414.619 219.972 414.619 220.082V220.329C414.565 220.384 414.538 220.458 414.529 220.549H414.185V221.154H414.646V222.493H415.125V227.16H393.594L391.644 228.737H378.558L377.266 232.908H375.722V237.896L374.358 242.315H373.04L373.193 243.737H373.744L373.898 244.653H374.602V246.79H370.944L372.444 248.724H372.642L373.997 251.878H374.295V269.83H370.935L372.435 271.765H372.633L373.988 274.919H374.286V295.007H361.958V261.157H362.726V260.543H362.591V259.525H361.967V254.62H362.401V253.831H361.967V252.126H362.265V251.108H361.967V250.677H362.347V249.687H361.967V233.358H362.491V232.67H361.967V228.829H362.834V227.582H361.706V226.133H360.333L354.137 187.928L354.083 171.745C354.273 171.644 354.399 171.452 354.399 171.232C354.399 170.911 354.137 170.645 353.821 170.645C353.505 170.645 353.243 170.902 353.243 171.232C353.243 171.461 353.37 171.653 353.559 171.745L352.981 187.937L345.549 226.133H344.122V227.582H342.993V228.829H343.86V232.67H343.336V233.358H343.86V239.922C343.038 239.739 342.424 238.996 342.424 238.107H341.991V237.218H341.44V236.86H341.602V236.246H339.688V235.916H340.049V235.595H339.688V235.173H339.995V234.641H338.712V230.011H339.652C339.76 230.011 339.85 229.92 339.85 229.81C339.85 229.699 339.76 229.608 339.652 229.608H338.712V228.398C338.712 228.278 338.613 228.187 338.496 228.187C338.378 228.187 338.279 228.288 338.279 228.398V229.608H337.34C337.231 229.608 337.141 229.699 337.141 229.81C337.141 229.92 337.231 230.011 337.34 230.011H338.279V234.641H336.996V235.173H337.303V235.595H336.942V235.916H337.303V236.246H335.389V236.86H335.551V237.218H335.001V238.107H334.567C334.567 239.134 333.745 239.968 332.743 239.968C332.652 239.968 332.571 239.968 332.481 239.95V232.267H332.824V230.855H333.221V229.333H332.824V228.343H333.221V226.967H333.808V225.904H333.014V223.758H332.49V220.274H333.014V219.486H332.49V218.541H330.684V218.771H319.557V209.51H319.937V208.355H319.557V195.987H319.937V195.327H319.557V194.309H319.937V193.649H319.557V191.457H320.334V190.238H320.659V189.422H319.557V187.689H318.907V186.827H317.444L316.27 166.436H316.92V164.355H314.319L308.332 120.74C308.476 120.539 308.575 120.31 308.575 120.034C308.575 119.521 308.259 119.09 307.826 118.907V113.002H309.659C309.894 113.002 310.084 112.81 310.084 112.571C310.084 112.333 309.894 112.14 309.659 112.14H307.826V109.344C307.826 109.087 307.627 108.885 307.374 108.885C307.121 108.885 306.923 109.087 306.923 109.344V112.14H305.089C304.855 112.14 304.665 112.333 304.665 112.571C304.665 112.81 304.855 113.002 305.089 113.002H306.923V118.907C306.48 119.09 306.173 119.521 306.173 120.034C306.173 120.383 306.318 120.695 306.553 120.915L299.102 164.355H296.501V166.436H297.151L295.977 186.827H294.514V187.689H293.864V189.422H292.762V190.238H293.087V191.457H293.864V193.649H293.484V194.309H293.864V195.327H293.484V195.987H293.864V208.355H293.484V209.51H293.864V218.771H282.737V218.541H280.931V219.486H280.407V220.274H280.931V223.758H280.407V225.904H279.622V226.967H280.209V228.343H280.606V229.333H280.209V230.855H280.606V232.267H280.949V239.95C280.868 239.959 280.778 239.968 280.687 239.968C279.676 239.968 278.854 239.134 278.854 238.107H278.421V237.218H277.87V236.86H278.032V236.246H276.118V235.916H276.479V235.595H276.118V235.173H276.425V234.641H275.133V230.011H276.072C276.181 230.011 276.271 229.92 276.271 229.81C276.271 229.699 276.181 229.608 276.072 229.608H275.133V228.398C275.133 228.278 275.034 228.187 274.917 228.187C274.799 228.187 274.709 228.288 274.709 228.398V229.608H273.77C273.661 229.608 273.571 229.699 273.571 229.81C273.571 229.92 273.661 230.011 273.77 230.011H274.709V234.641H273.417V235.173H273.724V235.595H273.363V235.916H273.724V236.246H271.81V236.86H271.972V237.218H271.421V238.107H270.988C270.988 238.996 270.374 239.739 269.552 239.922V233.358H270.076V232.67H269.552V228.829H270.419V227.582H269.29V226.133H267.917L261.686 187.634L261.668 171.745C261.858 171.644 261.984 171.452 261.984 171.232C261.984 170.911 261.731 170.645 261.415 170.645C261.099 170.645 260.837 170.902 260.837 171.232C260.837 171.461 260.963 171.653 261.153 171.745L260.62 187.625L253.142 226.133H251.716V227.582H250.587V228.829H251.454V232.67H250.93V233.358H251.454V249.687H251.074V250.677H251.454V251.108H251.156V252.126H251.454V253.831H251.011V254.62H251.454V259.525H250.831V260.543H250.695V261.157H251.463V295.007H239.623V274.919H239.921L241.276 271.765H241.474L242.973 269.83H239.614V251.878H239.912L241.267 248.724H241.465L242.964 246.79H239.307V244.653H240.011L240.165 243.737H240.716L240.869 242.315H239.551L238.187 237.896V232.908H236.643L235.351 228.737H222.265L220.314 227.16H198.784V222.493H199.263V221.154H199.723V220.549H199.38C199.38 220.467 199.344 220.393 199.29 220.329V220.082C199.29 219.972 199.227 219.88 199.127 219.834C199.127 219.807 199.127 219.788 199.127 219.761C199.145 219.733 199.164 219.706 199.164 219.669V218.193C199.299 218.138 199.389 218 199.389 217.854C199.389 217.652 199.236 217.496 199.046 217.487C199.236 217.487 199.389 217.331 199.389 217.129C199.389 216.928 199.236 216.781 199.046 216.781C198.856 216.781 198.694 216.937 198.694 217.129C198.694 217.194 198.712 217.249 198.739 217.304H195.777V215.36H195.994V214.801C196.31 214.654 196.481 214.489 196.481 214.306C196.481 214.122 196.292 213.948 195.957 213.801C195.858 213.645 195.777 213.471 195.714 213.288C195.605 212.967 195.551 212.618 195.497 212.316C195.307 211.234 194.964 210.271 193.989 209.492C193.537 209.134 193.004 208.869 192.67 208.483C192.318 208.08 192.038 204.202 191.902 203.377C192.219 203.322 192.435 203.221 192.435 203.102C192.435 202.973 192.164 202.863 191.794 202.817C191.794 202.808 191.794 202.79 191.794 202.781C192.173 202.735 192.444 202.625 192.444 202.496C192.444 202.359 192.137 202.24 191.722 202.203C191.659 201.589 191.659 200.956 191.659 200.333C191.659 200.158 191.659 199.993 191.659 199.819C191.939 199.792 192.146 199.7 192.146 199.59C192.146 199.48 191.939 199.388 191.659 199.361C191.659 198.701 191.641 198.04 191.641 197.39L191.469 196.812L191.297 197.39C191.297 198.05 191.288 198.71 191.279 199.361C190.999 199.388 190.783 199.48 190.783 199.59C190.783 199.7 190.99 199.792 191.27 199.819C191.27 199.993 191.27 200.158 191.27 200.333C191.27 200.965 191.27 201.589 191.207 202.203C190.792 202.24 190.485 202.359 190.485 202.496C190.485 202.625 190.756 202.744 191.135 202.781C191.135 202.79 191.135 202.808 191.135 202.817C190.756 202.863 190.494 202.973 190.494 203.102C190.494 203.221 190.71 203.322 191.026 203.377C190.891 204.202 190.611 208.08 190.259 208.483C189.925 208.878 189.392 209.134 188.94 209.492C187.965 210.271 187.622 211.225 187.432 212.316C187.378 212.628 187.324 212.967 187.215 213.288C187.152 213.471 187.08 213.645 186.972 213.801C186.637 213.957 186.448 214.131 186.448 214.306C186.448 214.48 186.619 214.654 186.935 214.801V215.36H187.152V217.304H184.19C184.217 217.249 184.235 217.194 184.235 217.129C184.235 216.937 184.082 216.781 183.883 216.781C183.684 216.781 183.54 216.937 183.54 217.129C183.54 217.322 183.693 217.478 183.883 217.478C183.693 217.487 183.54 217.652 183.54 217.854C183.54 218.01 183.63 218.138 183.765 218.193V219.669C183.765 219.669 183.784 219.733 183.802 219.761C183.802 219.788 183.802 219.807 183.802 219.834C183.702 219.871 183.639 219.972 183.639 220.082V220.329C183.585 220.384 183.558 220.458 183.549 220.549H183.206V221.154H183.666V222.493H184.145V227.16H162.615L160.664 228.737H147.578L146.286 232.908H144.742V237.896L143.378 242.315H142.06L142.213 243.737H142.764L142.918 244.653H143.622V246.79H139.965L141.473 248.724H141.671L143.026 251.878H143.324V269.83H139.965L141.473 271.765H141.671L143.026 274.919H143.324V295.007H141.518V299.124H472.418V295.007H470.612V274.919H470.91L472.264 271.765H472.463L473.971 269.83H470.612V251.878H470.549ZM184.452 220.091V220.21H184.091V220.091C184.091 219.981 184.027 219.889 183.928 219.843C183.928 219.816 183.928 219.797 183.928 219.77C183.946 219.742 183.964 219.715 183.964 219.678V218.202C184.1 218.147 184.19 218.01 184.19 217.863C184.19 217.863 184.19 217.854 184.19 217.845H184.352C184.352 217.845 184.352 217.854 184.352 217.863C184.352 218.019 184.443 218.147 184.578 218.202V219.678C184.578 219.678 184.596 219.742 184.614 219.77C184.614 219.797 184.614 219.816 184.614 219.843C184.524 219.88 184.452 219.981 184.452 220.091ZM185.346 220.091V220.21H184.985V220.091C184.985 219.981 184.921 219.889 184.822 219.843C184.822 219.816 184.822 219.797 184.822 219.77C184.84 219.742 184.858 219.715 184.858 219.678V218.202C184.994 218.147 185.084 218.01 185.084 217.863C185.084 217.863 185.084 217.854 185.084 217.845H185.247C185.247 217.845 185.247 217.854 185.247 217.863C185.247 218.019 185.337 218.147 185.472 218.202V219.678C185.472 219.678 185.49 219.742 185.508 219.77C185.508 219.797 185.508 219.816 185.508 219.843C185.418 219.88 185.346 219.981 185.346 220.091ZM186.24 220.091V220.21H185.879V220.091C185.879 219.981 185.816 219.889 185.716 219.843C185.716 219.816 185.716 219.797 185.716 219.77C185.734 219.742 185.752 219.715 185.752 219.678V218.202C185.888 218.147 185.978 218.01 185.978 217.863C185.978 217.863 185.978 217.854 185.978 217.845H186.141C186.141 217.845 186.141 217.854 186.141 217.863C186.141 218.019 186.231 218.147 186.366 218.202V219.678C186.366 219.678 186.384 219.742 186.403 219.77C186.403 219.797 186.403 219.816 186.403 219.843C186.312 219.88 186.24 219.981 186.24 220.091ZM187.071 220.21H186.764V220.091C186.764 219.981 186.701 219.889 186.601 219.843C186.601 219.816 186.601 219.797 186.601 219.77C186.619 219.742 186.637 219.715 186.637 219.678V218.202C186.773 218.147 186.863 218.01 186.863 217.863C186.863 217.863 186.863 217.854 186.863 217.845H187.026C187.026 217.845 187.026 217.854 187.026 217.863C187.026 217.927 187.044 217.982 187.071 218.037V220.21ZM196.039 220.091V220.21H195.732V218.037C195.759 217.982 195.777 217.927 195.777 217.863C195.777 217.863 195.777 217.854 195.777 217.845H195.939C195.939 217.845 195.939 217.854 195.939 217.863C195.939 218.019 196.03 218.147 196.165 218.202V219.678C196.165 219.678 196.183 219.742 196.201 219.77C196.201 219.797 196.201 219.816 196.201 219.843C196.102 219.88 196.039 219.981 196.039 220.091ZM196.924 220.091V220.21H196.563V220.091C196.563 219.981 196.499 219.889 196.4 219.843C196.4 219.816 196.4 219.797 196.4 219.77C196.418 219.742 196.436 219.715 196.436 219.678V218.202C196.572 218.147 196.662 218.01 196.662 217.863C196.662 217.863 196.662 217.854 196.662 217.845H196.824C196.824 217.845 196.824 217.854 196.824 217.863C196.824 218.019 196.915 218.147 197.05 218.202V219.678C197.05 219.678 197.068 219.742 197.086 219.77C197.086 219.797 197.086 219.816 197.086 219.843C196.996 219.88 196.924 219.981 196.924 220.091ZM197.818 220.091V220.21H197.457V220.091C197.457 219.981 197.393 219.889 197.294 219.843C197.294 219.816 197.294 219.797 197.294 219.77C197.312 219.742 197.33 219.715 197.33 219.678V218.202C197.466 218.147 197.556 218.01 197.556 217.863C197.556 217.863 197.556 217.854 197.556 217.845H197.719C197.719 217.845 197.719 217.854 197.719 217.863C197.719 218.019 197.809 218.147 197.944 218.202V219.678C197.944 219.678 197.962 219.742 197.98 219.77C197.98 219.797 197.98 219.816 197.98 219.843C197.89 219.88 197.818 219.981 197.818 220.091ZM198.712 220.21H198.351V220.091C198.351 219.981 198.287 219.889 198.188 219.843C198.188 219.816 198.188 219.797 198.188 219.77C198.206 219.742 198.224 219.715 198.224 219.678V218.202C198.36 218.147 198.45 218.01 198.45 217.863C198.45 217.863 198.45 217.854 198.45 217.845H198.613C198.613 217.845 198.613 217.854 198.613 217.863C198.613 218.019 198.703 218.147 198.838 218.202V219.678C198.838 219.678 198.856 219.742 198.875 219.77C198.875 219.797 198.875 219.816 198.875 219.843C198.784 219.88 198.712 219.981 198.712 220.091V220.21ZM415.459 220.091V220.21H415.088V220.091C415.088 219.981 415.025 219.889 414.926 219.843C414.926 219.816 414.926 219.797 414.926 219.77C414.944 219.742 414.962 219.715 414.962 219.678V218.202C415.098 218.147 415.188 218.01 415.188 217.863C415.188 217.863 415.188 217.854 415.188 217.845H415.35C415.35 217.845 415.35 217.854 415.35 217.863C415.35 218.019 415.441 218.147 415.576 218.202V219.678C415.576 219.678 415.594 219.742 415.612 219.77C415.612 219.797 415.612 219.816 415.612 219.843C415.522 219.88 415.45 219.981 415.45 220.091H415.459ZM416.344 220.091V220.21H415.983V220.091C415.983 219.981 415.919 219.889 415.82 219.843C415.82 219.816 415.82 219.797 415.82 219.77C415.838 219.742 415.856 219.715 415.856 219.678V218.202C415.992 218.147 416.082 218.01 416.082 217.863C416.082 217.863 416.082 217.854 416.082 217.845H416.244C416.244 217.845 416.244 217.854 416.244 217.863C416.244 218.019 416.335 218.147 416.47 218.202V219.678C416.47 219.678 416.479 219.742 416.506 219.77C416.506 219.797 416.506 219.816 416.506 219.843C416.416 219.88 416.344 219.981 416.344 220.091ZM417.238 220.091V220.21H416.877V220.091C416.877 219.981 416.813 219.889 416.714 219.843C416.714 219.816 416.714 219.797 416.714 219.77C416.732 219.742 416.75 219.715 416.75 219.678V218.202C416.886 218.147 416.976 218.01 416.976 217.863C416.976 217.863 416.976 217.854 416.976 217.845H417.139C417.139 217.845 417.139 217.854 417.139 217.863C417.139 218.019 417.229 218.147 417.364 218.202V219.678C417.364 219.678 417.373 219.742 417.4 219.77C417.4 219.797 417.4 219.816 417.4 219.843C417.301 219.88 417.238 219.981 417.238 220.091ZM418.069 220.21H417.762V220.091C417.762 219.981 417.698 219.889 417.599 219.843C417.599 219.816 417.599 219.797 417.599 219.77C417.617 219.742 417.635 219.715 417.635 219.678V218.202C417.762 218.147 417.861 218.01 417.861 217.863C417.861 217.863 417.861 217.854 417.861 217.845H418.024C418.024 217.845 418.024 217.854 418.024 217.863C418.024 217.927 418.042 217.982 418.069 218.037V220.21ZM427.037 220.091V220.21H426.73V218.037C426.757 217.982 426.775 217.927 426.775 217.863C426.775 217.863 426.775 217.854 426.775 217.845H426.937C426.937 217.845 426.937 217.854 426.937 217.863C426.937 218.019 427.028 218.147 427.163 218.202V219.678C427.163 219.678 427.181 219.742 427.199 219.77C427.199 219.797 427.199 219.816 427.199 219.843C427.109 219.88 427.037 219.981 427.037 220.091ZM427.931 220.091V220.21H427.569V220.091C427.569 219.981 427.506 219.889 427.407 219.843C427.407 219.816 427.407 219.797 427.407 219.77C427.425 219.742 427.443 219.715 427.443 219.678V218.202C427.579 218.147 427.669 218.01 427.669 217.863C427.669 217.863 427.669 217.854 427.669 217.845H427.831C427.831 217.845 427.831 217.854 427.831 217.863C427.831 218.019 427.922 218.147 428.057 218.202V219.678C428.057 219.678 428.066 219.742 428.093 219.77C428.093 219.797 428.093 219.816 428.093 219.843C428.003 219.88 427.931 219.981 427.931 220.091ZM428.825 220.091V220.21H428.464V220.091C428.464 219.981 428.4 219.889 428.301 219.843C428.301 219.816 428.301 219.797 428.301 219.77C428.319 219.742 428.337 219.715 428.337 219.678V218.202C428.473 218.147 428.563 218.01 428.563 217.863C428.563 217.863 428.563 217.854 428.563 217.845H428.725C428.725 217.845 428.725 217.854 428.725 217.863C428.725 218.019 428.816 218.147 428.951 218.202V219.678C428.951 219.678 428.96 219.742 428.987 219.77C428.987 219.797 428.987 219.816 428.987 219.843C428.897 219.88 428.825 219.981 428.825 220.091ZM429.71 220.21H429.349V220.091C429.349 219.981 429.285 219.889 429.186 219.843C429.186 219.816 429.186 219.797 429.186 219.77C429.204 219.742 429.222 219.715 429.222 219.678V218.202C429.358 218.147 429.448 218.01 429.448 217.863C429.448 217.863 429.448 217.854 429.448 217.845H429.611C429.611 217.845 429.611 217.854 429.611 217.863C429.611 218.019 429.701 218.147 429.836 218.202V219.678C429.836 219.678 429.845 219.742 429.872 219.77C429.872 219.797 429.872 219.816 429.872 219.843C429.782 219.88 429.71 219.981 429.71 220.091V220.21Z" fill="white"/>
<path d="M434.975 299.133C435.219 298.565 435.355 297.941 435.346 297.281C435.301 295.017 434.506 292.789 432.943 291.23C432.04 285.6 425.258 281.52 419.803 282.795C418.792 281.832 417.645 281.071 416.281 280.723C414.529 280.264 412.921 280.604 411.314 281.365C410.041 281.961 409.183 283.162 408.587 284.427C405.055 280.604 399.736 278 395.022 279.898C392.331 278.715 389.422 277.798 386.551 278.632C383.372 279.54 381.891 282.309 381.34 285.298C378.215 285.261 375.18 286.086 373.194 288.36C372.272 287.792 371.279 287.315 370.267 286.893C369.735 284.198 368.678 281.759 366.24 280.081C363.792 278.376 360.713 278.999 358.121 280.2C357.913 280.026 357.696 279.861 357.461 279.714C355.104 278.137 351.591 278.055 349.297 279.824C346.416 282.043 345.613 285.261 346.281 288.745C345.513 289.14 344.854 289.726 344.457 290.533C343.102 293.238 342.659 296.63 344.339 299.142H434.975V299.133Z" fill="white"/>
<path d="M894.361 299.133C894.605 298.565 894.74 297.941 894.731 297.281C894.686 295.017 893.892 292.789 892.329 291.23C891.426 285.6 884.644 281.52 879.189 282.795C878.177 281.832 877.03 281.071 875.667 280.723C873.915 280.264 872.307 280.604 870.7 281.365C869.426 281.961 868.568 283.162 867.972 284.427C864.441 280.604 859.122 278 854.407 279.898C851.716 278.715 848.808 277.798 845.936 278.632C842.757 279.54 841.276 282.309 840.725 285.298C837.601 285.261 834.566 286.086 832.579 288.36C831.658 287.792 830.665 287.315 829.653 286.893C829.12 284.198 828.064 281.759 825.625 280.081C823.178 278.376 820.098 278.999 817.506 280.2C817.299 280.026 817.082 279.861 816.847 279.714C814.49 278.137 810.977 278.055 808.683 279.824C805.802 282.043 804.998 285.261 805.666 288.745C804.899 289.14 804.24 289.726 803.842 290.533C802.488 293.238 802.045 296.63 803.725 299.142H894.361V299.133Z" fill="white"/>
<path d="M1168.95 299.133C1168.71 298.565 1168.57 297.941 1168.58 297.281C1168.63 295.017 1169.42 292.789 1170.98 291.23C1171.89 285.6 1178.67 281.52 1184.13 282.795C1185.14 281.832 1186.28 281.071 1187.65 280.723C1189.4 280.264 1191.01 280.604 1192.61 281.365C1193.89 281.961 1194.75 283.162 1195.34 284.427C1198.87 280.604 1204.19 278 1208.91 279.898C1211.6 278.715 1214.51 277.798 1217.38 278.632C1220.56 279.54 1222.04 282.309 1222.59 285.298C1225.71 285.261 1228.75 286.086 1230.73 288.36C1231.66 287.792 1232.65 287.315 1233.66 286.893C1234.19 284.198 1235.25 281.759 1237.69 280.081C1240.14 278.376 1243.22 278.999 1245.81 280.2C1246.02 280.026 1246.23 279.861 1246.47 279.714C1248.82 278.137 1252.34 278.055 1254.63 279.824C1257.51 282.043 1258.32 285.261 1257.65 288.745C1258.42 289.14 1259.07 289.726 1259.47 290.533C1260.83 293.238 1261.27 296.63 1259.59 299.142H1168.95V299.133Z" fill="white"/>
<path d="M565.835 299.133H483.616C483.517 298.977 483.39 298.84 483.309 298.675C481.151 296.713 480.455 293.293 481.394 290.139C482.767 285.573 486.858 281.108 491.952 281.154C492.178 281.154 492.385 281.2 492.602 281.218C495.582 280.053 498.879 280.246 501.967 281.025C503.385 281.392 504.297 282.199 504.776 283.198C505.345 282.171 506.293 281.346 507.503 281.025C509.237 280.567 511.197 280.402 512.922 280.989C513.247 281.099 513.545 281.227 513.834 281.365C515.063 279.494 516.815 278.018 519.145 277.642C519.497 277.578 519.849 277.569 520.201 277.569C522.938 275.928 526.279 275.772 529.178 277.532C530.235 278.183 530.966 279.192 531.264 280.301C532.231 280.677 532.962 281.08 533.766 281.823C534.317 282.327 534.741 282.987 535.075 283.648C535.518 284.519 535.744 285.408 535.662 286.343C536.15 285.738 536.737 285.179 537.433 284.656C538.227 284.069 539.248 283.703 540.304 283.519C540.431 282.08 540.774 280.668 541.515 279.384C542.77 277.184 545.371 275.863 547.909 276.065C550.203 276.249 552.135 277.743 552.397 280.044C554.474 279.861 556.615 280.292 558.448 281.255C560.895 282.547 562.124 284.748 562.358 287.132C563.993 287.7 565.456 288.809 566.368 290.231C567.913 292.596 567.777 295.512 566.603 297.969C566.395 298.4 566.143 298.785 565.863 299.115L565.835 299.133Z" fill="white"/>
<path d="M1074.77 299.133H992.551C992.451 298.977 992.325 298.84 992.243 298.675C990.085 296.713 989.39 293.293 990.329 290.139C991.702 285.573 995.793 281.108 1000.89 281.154C1001.11 281.154 1001.32 281.2 1001.54 281.218C1004.52 280.053 1007.81 280.246 1010.9 281.025C1012.32 281.392 1013.23 282.199 1013.71 283.198C1014.28 282.171 1015.23 281.346 1016.44 281.025C1018.17 280.567 1020.13 280.402 1021.86 280.989C1022.18 281.099 1022.48 281.227 1022.77 281.365C1024 279.494 1025.75 278.018 1028.08 277.642C1028.43 277.578 1028.78 277.569 1029.14 277.569C1031.87 275.928 1035.21 275.772 1038.11 277.532C1039.17 278.183 1039.9 279.192 1040.2 280.301C1041.17 280.677 1041.9 281.08 1042.7 281.823C1043.25 282.327 1043.68 282.987 1044.01 283.648C1044.45 284.519 1044.68 285.408 1044.6 286.343C1045.08 285.738 1045.67 285.179 1046.36 284.656C1047.15 284.069 1048.17 283.703 1049.23 283.519C1049.36 282.08 1049.7 280.668 1050.44 279.384C1051.7 277.184 1054.3 275.863 1056.83 276.065C1059.13 276.249 1061.06 277.743 1061.32 280.044C1063.4 279.861 1065.54 280.292 1067.37 281.255C1069.82 282.547 1071.05 284.748 1071.28 287.132C1072.92 287.7 1074.38 288.809 1075.29 290.231C1076.84 292.596 1076.7 295.512 1075.53 297.969C1075.32 298.4 1075.07 298.785 1074.79 299.115L1074.77 299.133Z" fill="white"/>
<path d="M116.809 299.133H199.028C199.127 298.977 199.254 298.84 199.335 298.675C201.493 296.713 202.189 293.293 201.25 290.139C199.877 285.573 195.786 281.108 190.692 281.154C190.466 281.154 190.259 281.2 190.042 281.218C187.062 280.053 183.765 280.246 180.677 281.025C179.259 281.392 178.347 282.199 177.868 283.198C177.299 282.171 176.351 281.346 175.141 281.025C173.407 280.567 171.447 280.402 169.722 280.989C169.397 281.099 169.099 281.227 168.81 281.365C167.582 279.494 165.83 278.018 163.5 277.642C163.147 277.578 162.795 277.569 162.443 277.569C159.706 275.928 156.365 275.772 153.466 277.532C152.4 278.183 151.678 279.192 151.38 280.301C150.413 280.677 149.682 281.08 148.878 281.823C148.327 282.327 147.903 282.987 147.569 283.648C147.126 284.519 146.9 285.408 146.982 286.343C146.494 285.738 145.907 285.179 145.212 284.656C144.417 284.069 143.396 283.703 142.34 283.519C142.213 282.08 141.87 280.668 141.129 279.384C139.874 277.184 137.273 275.863 134.735 276.065C132.442 276.249 130.509 277.743 130.247 280.044C128.17 279.861 126.029 280.292 124.196 281.255C121.749 282.547 120.52 284.748 120.295 287.132C118.66 287.7 117.197 288.809 116.285 290.231C114.741 292.596 114.876 295.512 116.05 297.969C116.258 298.4 116.511 298.785 116.791 299.115L116.809 299.133Z" fill="white"/>
<path d="M170.354 299.133H252.574C252.673 298.977 252.799 298.84 252.881 298.675C255.039 296.713 255.734 293.293 254.795 290.139C253.422 285.573 249.331 281.108 244.238 281.154C244.012 281.154 243.804 281.2 243.588 281.218C240.607 280.053 237.311 280.246 234.222 281.025C232.804 281.392 231.892 282.199 231.414 283.198C230.845 282.171 229.896 281.346 228.686 281.025C226.952 280.567 224.993 280.402 223.268 280.989C222.942 281.099 222.644 281.227 222.355 281.365C221.127 279.494 219.375 278.018 217.045 277.642C216.693 277.578 216.341 277.569 215.988 277.569C213.252 275.928 209.911 275.772 207.012 277.532C205.946 278.183 205.223 279.192 204.925 280.301C203.959 280.677 203.228 281.08 202.424 281.823C201.873 282.327 201.448 282.987 201.114 283.648C200.672 284.519 200.446 285.408 200.527 286.343C200.04 285.738 199.453 285.179 198.757 284.656C197.962 284.069 196.942 283.703 195.885 283.519C195.759 282.08 195.416 280.668 194.675 279.384C193.42 277.184 190.819 275.863 188.281 276.065C185.987 276.249 184.054 277.743 183.793 280.044C181.715 279.861 179.575 280.292 177.742 281.255C175.294 282.547 174.066 284.748 173.84 287.132C172.206 287.7 170.743 288.809 169.83 290.231C168.286 292.596 168.422 295.512 169.596 297.969C169.803 298.4 170.056 298.785 170.336 299.115L170.354 299.133Z" fill="white"/>
<path d="M1280 298.885H0V324.878H1280V298.885Z" fill="white"/>
<path d="M130.166 211.83C129.588 211.509 128.928 211.298 128.224 211.206C129.172 210.968 130.093 211.206 130.987 211.316C131.457 211.39 131.927 211.426 132.396 211.445L130.554 209.712C133.263 210.29 135.052 210.675 136.235 210.941L135.476 210.033C137.707 210.014 139.197 210.207 140.163 210.445C139.992 209.739 139.404 209.198 137.987 208.282C139.721 208.713 140.037 208.612 141.671 209.959C141.364 209.244 140.84 208.612 140.091 208.08C142.222 208.236 144.182 208.777 145.645 209.721C144.119 207.622 148.345 209.189 150.052 209.125C149.772 208.997 149.483 208.878 149.185 208.768C150.332 208.63 151.542 208.658 152.753 208.85C151.497 208.016 149.881 207.401 148.58 206.815C150.847 206.714 153.358 207.264 155.579 208.603C154.875 207.42 153.908 206.365 152.725 205.522C154.812 205.806 156.979 206.686 158.849 208.19L158.993 208.172C158.587 207.768 158.144 207.383 157.665 207.044C158.478 207.154 159.309 207.356 160.131 207.658C155.381 203.441 148.111 201.414 140.877 202.322C133.462 203.257 126.255 207.264 121.938 212.848L130.157 211.812L130.166 211.83Z" fill="white"/>
<path d="M115.129 215.626C115.499 215.066 115.996 214.544 116.583 214.113C115.635 214.37 114.93 215.039 114.172 215.571C113.783 215.864 113.386 216.13 112.979 216.377L113.873 213.939C111.715 215.772 110.297 217.001 109.358 217.817L109.638 216.634C107.651 217.707 106.414 218.615 105.646 219.302C105.502 218.587 105.791 217.826 106.649 216.313C105.303 217.551 104.969 217.615 104.102 219.614C104.066 218.835 104.264 218.009 104.698 217.175C102.874 218.358 101.365 219.797 100.471 221.356C100.923 218.743 97.8433 222.209 96.308 222.988C96.4976 222.731 96.7053 222.484 96.9221 222.245C95.8474 222.685 94.7817 223.3 93.7883 224.07C94.5469 222.713 95.7119 221.374 96.615 220.219C94.5559 221.237 92.5691 222.961 91.1692 225.234C91.2867 223.841 91.6931 222.429 92.3704 221.099C90.6454 222.374 89.0921 224.226 88.0806 226.472L87.9451 226.527C88.1258 225.968 88.3606 225.409 88.6405 224.868C87.9632 225.372 87.313 225.959 86.7169 226.619C89.1192 220.54 94.7004 215.176 101.519 212.435C108.509 209.629 116.628 209.648 122.868 212.49L115.12 215.607L115.129 215.626Z" fill="white"/>
<path d="M124.286 219.742C124.458 219.211 124.539 218.66 124.503 218.11C124.955 218.798 124.873 219.66 124.946 220.439C124.946 220.623 124.964 220.797 124.982 220.98L126.3 219.064L126.084 223.712L127.601 221.512L127.366 226.426C128.17 225.317 128.874 224.152 129.425 222.988C129.317 224.29 128.82 225.968 127.881 227.866V227.893L129.47 226.399L129.335 229.241C130.093 228.434 130.717 227.536 131.195 226.582C131.385 228.232 131.042 230.13 130.048 232.019C131.34 230.515 132.441 228.819 133.236 227.141C133.101 228.874 132.243 231.313 130.599 233.999C131.918 232.312 133.2 230.433 134.266 228.645C133.679 230.103 132.541 233.587 132.171 237.144C134.555 234.339 134.266 233.394 134.356 231.982C134.907 233.734 133.895 237.126 132.983 239.409L133.019 239.482C134.184 238.41 135.151 237.172 135.855 235.842C135.964 237.685 134.437 242.664 134.437 242.664C134.781 242.187 135.079 241.701 135.349 241.197C135.368 241.554 135.368 241.93 135.34 242.315C138.763 236.75 139.404 230.149 137.002 224.73C134.455 218.991 128.549 214.709 121.478 213.462L124.268 219.752L124.286 219.742Z" fill="white"/>
<path d="M128.811 216.203C128.549 215.745 128.188 215.323 127.736 214.975C128.639 215.186 129.226 215.809 129.886 216.313C130.03 216.433 130.175 216.543 130.328 216.653L129.949 214.59L133.336 217.872L132.902 215.507L136.478 218.981C136.298 217.771 135.982 216.57 135.539 215.47C136.451 216.414 137.327 217.845 138.005 219.66H138.032L138.185 217.753L140.253 219.761C140.253 218.78 140.091 217.808 139.748 216.891C141.166 217.9 142.34 219.394 142.972 221.246C142.881 219.486 142.502 217.707 141.87 216.103C143.089 217.359 144.245 219.504 144.95 222.273H144.968C144.751 220.366 144.372 218.358 143.884 216.533C144.516 217.863 146.25 220.879 148.679 223.511C148.499 220.247 147.532 219.77 146.53 218.752C148.327 219.632 150.097 222.511 151.091 224.583L151.181 224.62C151.326 223.217 151.181 221.833 150.739 220.531C152.238 221.723 154.803 225.986 154.803 225.986C154.721 225.473 154.595 224.959 154.432 224.464C154.73 224.703 155.01 224.95 155.281 225.234C153.836 219.495 149.312 214.636 143.17 212.325C136.668 209.877 128.504 210.335 121.703 213.535L128.838 216.213L128.811 216.203Z" fill="white"/>
<path d="M119.699 218.881C119.753 218.257 119.942 217.634 120.268 217.038C119.518 217.624 119.202 218.468 118.777 219.22C118.57 219.623 118.335 219.999 118.091 220.366L117.63 217.964C116.583 220.357 115.896 221.952 115.454 223.006L115.093 221.906C113.792 223.602 113.115 224.849 112.763 225.729C112.248 225.188 112.112 224.437 112.112 222.832C111.498 224.4 111.227 224.593 111.471 226.61C111.02 225.968 110.767 225.198 110.731 224.327C109.647 226.05 108.988 227.847 108.979 229.507C108.012 227.141 106.956 231.267 105.926 232.523C105.971 232.23 106.034 231.946 106.107 231.652C105.33 232.45 104.653 233.385 104.138 234.43C104.129 232.991 104.517 231.405 104.752 230.075C103.361 231.744 102.404 233.981 102.305 236.447C101.672 235.228 101.302 233.889 101.239 232.505C100.291 234.256 99.8211 236.429 100.065 238.712L99.9656 238.813C99.8391 238.272 99.7669 237.713 99.7398 237.144C99.3695 237.832 99.0715 238.584 98.8638 239.381C97.8884 233.33 100.282 226.61 105.231 221.613C110.306 216.488 117.956 213.288 125.343 213.196L119.717 218.881H119.699Z" fill="white"/>
<path d="M114.84 210.409C115.463 210.262 116.095 210.198 116.727 210.235C115.933 209.84 114.939 209.905 114.027 209.84C113.819 209.84 113.612 209.822 113.404 209.804L115.635 208.676L110.252 208.841L112.808 207.539L107.118 207.713C108.41 207.026 109.764 206.43 111.11 205.953C109.611 206.035 107.651 206.457 105.456 207.255H105.429L107.172 205.889L103.885 205.99C104.824 205.339 105.863 204.807 106.974 204.403C105.068 204.229 102.865 204.523 100.67 205.357C102.422 204.257 104.382 203.303 106.333 202.625C104.319 202.735 101.501 203.459 98.3761 204.862H98.358C100.336 203.725 102.512 202.634 104.599 201.717C102.91 202.221 98.8638 203.175 94.7456 203.477C98.0058 201.433 99.0986 201.69 100.733 201.616C98.7102 201.13 94.7727 201.983 92.1265 202.762L92.0362 202.735C93.2916 201.735 94.7185 200.901 96.2628 200.305C94.1315 200.204 88.3515 201.497 88.3515 201.497C88.9024 201.204 89.4714 200.947 90.0584 200.718C89.643 200.699 89.2095 200.699 88.767 200.718C95.2333 197.793 102.883 197.279 109.141 199.388C115.77 201.616 120.692 206.741 122.101 212.857L114.831 210.409H114.84Z" fill="white"/>
<path d="M117.983 207.163C118.66 207.31 119.292 207.567 119.843 207.933C119.464 207.209 118.642 206.806 117.965 206.329C117.594 206.09 117.26 205.834 116.935 205.568H119.798C117.504 204.303 115.978 203.477 114.957 202.927L116.33 202.799C114.921 201.433 113.774 200.663 112.916 200.232C113.72 199.883 114.614 199.892 116.42 200.158C114.885 199.388 114.786 199.131 112.42 199.012C113.314 198.737 114.271 198.655 115.264 198.765C113.747 197.573 111.968 196.738 110.108 196.463C113.133 196.042 108.897 194.483 107.868 193.419C108.175 193.502 108.473 193.603 108.771 193.713C108.166 192.934 107.371 192.218 106.405 191.613C108.021 191.842 109.656 192.42 111.056 192.833C109.701 191.393 107.561 190.238 104.833 189.752C106.441 189.422 108.085 189.33 109.665 189.495C108.048 188.423 105.8 187.671 103.135 187.506L103.063 187.405C103.723 187.387 104.373 187.414 105.023 187.487C104.391 187.066 103.659 186.699 102.846 186.387C110.008 186.552 116.646 189.651 120.385 194.602C124.223 199.682 124.937 206.604 122.254 212.793L118.001 207.163H117.983Z" fill="white"/>
<path d="M124.006 205.284C124.241 205.76 124.377 206.283 124.404 206.833C124.774 206.035 124.593 205.21 124.566 204.422C124.548 204.238 124.548 204.064 124.548 203.881L126.066 205.403L125.316 200.892L127.068 202.643L126.273 197.875C127.194 198.746 128.016 199.7 128.694 200.699C128.441 199.452 127.754 197.93 126.616 196.326V196.298L128.35 197.334L127.89 194.575C128.73 195.162 129.452 195.868 130.021 196.684C130.021 195.006 129.461 193.236 128.269 191.641C129.714 192.769 130.997 194.125 131.972 195.565C131.638 193.896 130.518 191.732 128.585 189.541C130.075 190.843 131.556 192.338 132.812 193.805C132.062 192.53 130.545 189.413 129.777 186.011C132.451 188.111 132.27 189.129 132.532 190.486C132.875 188.615 131.484 185.553 130.328 183.554L130.355 183.472C131.629 184.214 132.721 185.159 133.57 186.277C133.462 184.434 131.385 179.951 131.385 179.951C131.773 180.327 132.134 180.721 132.451 181.143C132.433 180.785 132.378 180.419 132.306 180.043C136.316 184.59 137.707 190.907 135.973 196.894C134.13 203.239 128.811 209.07 121.993 212.233L124.015 205.284H124.006Z" fill="white"/>
<path d="M123.25 215.445C124.68 214.999 125.547 213.672 125.187 212.481C124.826 211.29 123.374 210.687 121.944 211.134C120.514 211.58 119.647 212.907 120.007 214.098C120.368 215.288 121.819 215.892 123.25 215.445Z" fill="white"/>
<path d="M123.681 212.444C123.672 212.517 123.654 212.582 123.645 212.655C123.645 212.664 123.645 212.682 123.645 212.692C123.618 212.838 123.6 212.976 123.582 213.123C123.564 213.178 123.546 213.223 123.546 213.278C123.537 213.324 123.528 213.379 123.519 213.425C123.501 213.462 123.492 213.508 123.492 213.563C123.465 213.673 123.456 213.774 123.437 213.874C123.437 213.92 123.419 213.966 123.41 214.012C123.41 214.067 123.401 214.113 123.392 214.159C123.392 214.186 123.392 214.214 123.374 214.241C123.356 214.415 123.329 214.58 123.311 214.736C123.302 214.782 123.293 214.819 123.293 214.865C123.266 215.011 123.248 215.158 123.23 215.314C123.23 215.36 123.221 215.406 123.212 215.461C123.167 215.781 123.13 216.112 123.094 216.451C123.076 216.616 123.058 216.781 123.049 216.946C123.049 216.983 123.049 217.019 123.04 217.056C122.986 217.633 122.932 218.22 122.887 218.825C122.841 219.476 122.796 220.146 122.769 220.824C122.769 220.842 122.769 220.87 122.769 220.888C122.742 221.42 122.724 221.961 122.706 222.511C122.697 222.915 122.688 223.318 122.679 223.731C122.679 223.886 122.679 224.033 122.679 224.189C122.652 226.454 122.706 228.819 122.823 231.276C122.905 233 123.031 234.76 123.176 236.567C123.221 237.107 123.266 237.639 123.32 238.18C123.338 238.345 123.356 238.51 123.365 238.684C125.208 258.085 130.491 280.924 136.478 297.253L131.565 298.784C125.515 282.666 121.974 257.993 121.107 238.547C121.107 238.547 121.107 238.529 121.107 238.519C121.107 238.364 121.098 238.199 121.089 238.043C121.062 237.41 121.035 236.777 121.017 236.145C121.017 236.026 121.017 235.897 121.008 235.778C120.945 233.935 120.918 232.138 120.909 230.424C120.9 228.141 120.936 225.977 121.017 223.969C121.035 223.575 121.053 223.18 121.071 222.795C121.08 222.603 121.089 222.401 121.098 222.209C121.171 220.934 121.261 219.724 121.369 218.605C121.424 218.064 121.478 217.542 121.541 217.047C121.568 216.827 121.595 216.616 121.622 216.405C121.622 216.322 121.64 216.24 121.649 216.167C121.685 215.956 121.713 215.754 121.749 215.552C121.785 215.314 121.821 215.075 121.875 214.846C121.884 214.736 121.902 214.645 121.911 214.553C121.929 214.535 121.947 214.516 121.956 214.498C122.056 214.379 122.155 214.269 122.254 214.159C122.318 214.085 122.381 214.003 122.444 213.929C122.471 213.902 122.489 213.874 122.516 213.847C122.516 213.847 122.525 213.829 122.534 213.829C122.579 213.792 122.616 213.746 122.643 213.7C122.733 213.59 122.814 213.508 122.896 213.407C122.905 213.388 122.923 213.37 122.932 213.361C122.959 213.324 122.995 213.288 123.022 213.26C123.049 213.242 123.058 213.223 123.076 213.196C123.121 213.15 123.176 213.077 123.23 213.022C123.275 212.967 123.32 212.921 123.365 212.866C123.383 212.847 123.401 212.829 123.41 212.811C123.437 212.774 123.465 212.737 123.492 212.701C123.555 212.627 123.618 212.545 123.681 212.472V212.444Z" fill="white"/>
<path d="M58.7745 256.673C59.6596 249.779 64.2745 242.957 70.9936 238.611C77.8934 234.165 86.8613 232.432 94.5739 234.064L86.9245 238.996C87.1774 238.327 87.5657 237.676 88.0986 237.099C87.1322 237.575 86.5362 238.419 85.8588 239.143C85.5157 239.537 85.1544 239.895 84.7751 240.243L85.0551 237.493C83.2127 239.886 81.9935 241.472 81.1988 242.535L81.1717 241.243C79.2842 242.801 78.1824 244.021 77.5412 244.901C77.1709 244.186 77.2703 243.324 77.776 241.554C76.6471 243.141 76.2949 243.278 75.9246 245.561C75.6537 244.745 75.6356 243.847 75.8704 242.875C74.1997 244.516 72.9534 246.35 72.4205 248.165C72.1586 245.332 69.7654 249.623 68.2933 250.769C68.4288 250.466 68.5913 250.155 68.7539 249.861C67.6973 250.558 66.7038 251.429 65.8278 252.456C66.2703 250.87 67.1735 249.219 67.8327 247.807C65.8549 249.32 64.1571 251.548 63.281 254.244C63.0101 252.758 63.0462 251.191 63.4165 249.65C61.8812 251.365 60.7072 253.629 60.2376 256.215L60.1021 256.297C60.1473 255.674 60.2376 255.041 60.3911 254.409C59.786 255.078 59.2441 255.839 58.7745 256.664" fill="white"/>
<path d="M90.5912 240.335C90.3925 239.693 90.3383 239.015 90.4376 238.318C89.8687 239.134 89.8777 240.069 89.7242 240.95C89.67 241.417 89.5616 241.866 89.4532 242.306L88.4056 240.592C88.2611 243.306 87.7373 244.562 87.6922 245.754L86.8432 244.754C86.1388 246.836 85.9221 248.294 85.904 249.284C85.1183 248.899 84.6577 248.184 83.9984 246.57C83.9894 248.33 83.7636 248.596 84.8745 250.549C84.1249 250.045 83.5288 249.348 83.1315 248.477C82.6709 250.531 82.707 252.529 83.3843 254.198C81.3613 252.108 81.9303 256.564 81.3343 258.141C81.262 257.838 81.2078 257.526 81.1717 257.215C80.6659 258.241 80.3228 259.387 80.1873 260.589C79.5822 259.149 79.3384 257.444 79.0494 256.041C78.2366 258.131 78.1282 260.653 79.0403 263.165C77.8573 262.138 76.9 260.9 76.2497 259.525C75.9517 261.57 76.34 263.88 77.5502 266.108L77.487 266.236C77.1258 265.732 76.8097 265.191 76.5478 264.632C76.4304 265.43 76.4213 266.273 76.5207 267.135C72.9624 261.359 72.7728 253.905 76.0601 247.413C79.4287 240.757 86.3736 235.256 94.312 232.955L90.5821 240.335H90.5912Z" fill="white"/>
<path d="M85.1184 236.026C85.7325 235.568 86.4189 235.201 87.1595 234.962C86.2022 234.889 85.2449 235.329 84.3147 235.623C83.827 235.797 83.3483 235.925 82.8606 236.044L84.8746 233.78C82.0569 234.935 80.1965 235.714 78.9682 236.237L79.8171 235.091C77.5323 235.503 75.997 236.008 74.9855 236.457C75.2203 235.65 75.8615 234.935 77.3787 233.651C75.5725 234.467 75.2474 234.412 73.4773 236.219C73.8476 235.375 74.4346 234.577 75.2384 233.844C73.0438 234.431 70.9937 235.402 69.4313 236.723C71.1473 234.11 66.7039 236.659 64.97 236.915C65.268 236.714 65.575 236.53 65.8821 236.356C64.7171 236.429 63.4798 236.686 62.2245 237.145C63.5792 235.98 65.268 234.99 66.6497 234.101C64.3378 234.421 61.7278 235.522 59.3526 237.429C60.1654 235.989 61.2401 234.641 62.5045 233.477C60.346 234.201 58.0611 235.586 56.0291 237.603H55.8846C56.3272 237.08 56.8148 236.576 57.3296 236.108C56.4807 236.393 55.6227 236.778 54.7557 237.264C59.9396 231.689 67.5438 228.049 74.8771 227.655C82.4001 227.252 89.4624 230.268 93.4632 235.586L85.1275 236.035L85.1184 236.026Z" fill="white"/>
<path d="M94.7093 241.023C94.2668 240.601 93.9146 240.115 93.6707 239.565C93.5804 240.482 94.0952 241.27 94.4294 242.068C94.5197 242.251 94.5919 242.425 94.6642 242.609L92.4154 241.499L94.9893 245.873L92.4064 244.598L95.1248 249.219C93.7881 248.605 92.5148 247.872 91.3949 247.056C92.1535 248.247 93.4901 249.595 95.3596 250.897V250.925L93.0747 250.365L94.6461 253.033C93.5082 252.676 92.4425 252.162 91.5033 251.511C92.1535 253.208 93.454 254.849 95.3686 256.123C93.3546 255.39 91.431 254.381 89.8144 253.208C90.835 254.803 92.885 256.673 95.8472 258.351V258.37C93.7069 257.471 91.5213 256.38 89.5796 255.243C90.8892 256.316 93.752 259.048 95.9195 262.284C92.1896 260.918 92 259.846 91.1872 258.535C91.5394 260.533 94.2397 263.247 96.2807 264.934V265.026C94.61 264.641 93.0566 263.999 91.702 263.11C92.5328 264.943 96.5336 268.904 96.5336 268.904C95.9646 268.638 95.4228 268.336 94.908 267.996C95.0706 268.354 95.2602 268.712 95.486 269.069C89.3539 265.613 85.3802 259.598 84.9557 253.006C84.5041 246.029 88.0353 238.565 94.2397 233.385L94.7364 241.032L94.7093 241.023Z" fill="white"/>
<path d="M99.7037 236.402C99.2161 235.906 98.611 235.503 97.9156 235.219C98.9813 235.2 99.8392 235.705 100.733 236.053C101.194 236.255 101.664 236.411 102.133 236.557L100.833 234.192C103.425 235.512 105.14 236.402 106.269 236.997L105.8 235.806C108.112 236.356 109.575 236.952 110.496 237.465C110.559 236.649 110.135 235.906 108.997 234.54C110.631 235.457 111.002 235.43 112.212 237.328C112.14 236.466 111.815 235.641 111.227 234.861C113.377 235.576 115.21 236.667 116.393 238.079C115.544 235.384 119.365 238.189 121.135 238.556C120.891 238.345 120.638 238.134 120.367 237.942C121.595 238.089 122.833 238.419 124.016 238.95C123.004 237.713 121.55 236.631 120.412 235.65C122.787 236.117 125.181 237.364 127.014 239.4C126.689 237.923 126.057 236.521 125.135 235.292C127.186 236.136 129.118 237.658 130.536 239.785L130.69 239.803C130.41 239.253 130.084 238.721 129.705 238.226C130.509 238.556 131.295 238.996 132.035 239.528C128.585 233.678 121.785 229.598 114.018 228.746C106.053 227.875 97.2473 230.424 90.8713 235.448L99.7037 236.411V236.402Z" fill="white"/>
<path d="M92.578 240.372C92.4606 239.712 92.1987 239.079 91.7833 238.511C92.6593 238.941 93.0838 239.776 93.6166 240.473C93.8785 240.858 94.1765 241.197 94.4836 241.536L94.7636 238.786C96.1363 241.114 97.0304 242.655 97.6174 243.691L97.9064 242.389C99.4868 243.874 100.345 245.048 100.814 245.91C101.329 245.176 101.41 244.314 101.248 242.563C102.061 244.113 102.386 244.232 102.305 246.505C102.738 245.68 102.937 244.773 102.901 243.801C104.246 245.378 105.131 247.166 105.303 248.972C106.134 246.111 107.678 250.329 108.915 251.42C108.834 251.117 108.744 250.815 108.635 250.521C109.557 251.172 110.378 252.007 111.047 252.997C110.92 251.42 110.351 249.797 109.963 248.413C111.643 249.852 112.898 252.016 113.241 254.684C113.819 253.18 114.09 251.612 114.036 250.072C115.228 251.722 115.951 253.96 115.905 256.527L116.023 256.609C116.104 255.977 116.14 255.353 116.113 254.73C116.583 255.381 116.98 256.114 117.287 256.93C117.784 250.045 114.533 243.379 108.653 239.299C102.621 235.118 93.9688 233.752 85.895 235.714L92.578 240.353V240.372Z" fill="white"/>
<path d="M97.6265 229.058C96.9943 229.36 96.4073 229.745 95.8925 230.213C96.2899 229.323 97.1839 228.691 97.9155 228.012C98.0871 227.866 98.2587 227.71 98.4212 227.554L95.7209 228.132L100.426 224.547L97.3194 225.207L102.296 221.42C100.706 221.723 99.1256 222.154 97.6445 222.685C98.9902 221.714 100.95 220.723 103.388 219.889L103.406 219.862L100.959 219.907L103.831 217.716C102.566 217.817 101.302 218.074 100.065 218.495C101.573 217.028 103.65 215.754 106.125 214.947C103.849 215.213 101.501 215.763 99.3514 216.543C101.149 215.241 104.066 213.911 107.732 212.948V212.93C105.249 213.334 102.612 213.911 100.191 214.571C101.989 213.829 106.125 211.848 109.846 209.254C105.619 209.767 104.869 210.739 103.415 211.812C104.797 209.996 108.762 208.007 111.571 206.833L111.625 206.741C109.846 206.751 108.03 207.035 106.296 207.594C108.039 206.035 113.892 203.138 113.892 203.138C113.214 203.266 112.546 203.441 111.887 203.652C112.23 203.349 112.6 203.046 112.997 202.762C105.402 204.743 98.5115 209.593 94.6733 215.717C90.6093 222.209 90.0403 229.993 93.1832 236.182L97.6445 229.067L97.6265 229.058Z" fill="white"/>
<path d="M99.5141 231.267C98.8729 231.093 98.1955 231.02 97.4911 231.047C98.4664 230.635 99.5412 230.726 100.553 230.681C100.787 230.681 101.013 230.671 101.248 230.653L99.1167 229.406L104.978 229.681L102.53 228.242L108.717 228.535C107.498 227.774 106.17 227.105 104.815 226.582C106.441 226.701 108.464 227.187 110.658 228.086H110.695L109.159 226.591L112.736 226.757C111.878 226.041 110.884 225.445 109.782 224.996C111.923 224.849 114.253 225.198 116.429 226.142C114.813 224.932 112.916 223.878 110.966 223.117C113.142 223.272 116.032 224.098 119.076 225.665H119.094C117.233 224.419 115.147 223.199 113.115 222.181C114.831 222.75 119.003 223.85 123.438 224.253C120.421 222.007 119.157 222.264 117.378 222.145C119.735 221.659 123.808 222.649 126.499 223.529L126.607 223.502C125.506 222.401 124.16 221.494 122.634 220.824C125 220.76 130.979 222.246 130.979 222.246C130.455 221.925 129.904 221.631 129.326 221.384C129.786 221.375 130.265 221.384 130.744 221.411C124.449 218.156 116.213 217.46 108.771 219.596C100.896 221.86 94.0954 227.242 90.8803 233.761L99.5141 231.286V231.267Z" fill="white"/>
<path d="M93.2555 228.709C92.9755 229.204 92.7859 229.727 92.7046 230.268C92.4427 229.534 92.7046 228.709 92.813 227.93C92.8491 227.756 92.8762 227.572 92.8943 227.398L91.2596 229.076L92.4788 224.583L90.6004 226.509L91.8918 221.759C90.9074 222.722 90.0133 223.758 89.2547 224.803C89.634 223.556 90.4649 221.989 91.7383 220.283V220.256L89.9591 221.484L90.7087 218.743C89.8417 219.421 89.0651 220.201 88.4239 221.063C88.6135 219.431 89.345 217.634 90.6636 215.937C89.1554 217.212 87.7646 218.697 86.6718 220.219C87.1776 218.55 88.4961 216.304 90.5913 213.929C89.0109 215.378 87.4214 217.019 86.0487 218.605C86.9066 217.276 88.7128 214.039 89.8327 210.638C87.0331 213.013 87.0963 213.975 86.6899 215.341C86.5725 213.554 88.2432 210.4 89.5798 208.309L89.5618 208.227C88.2523 209.107 87.0963 210.161 86.1661 211.353C86.4731 209.547 88.9657 204.917 88.9657 204.917C88.5503 205.329 88.1619 205.76 87.8097 206.21C87.873 205.852 87.9542 205.494 88.0716 205.128C83.7096 210.051 81.6776 216.377 82.6891 222.007C83.7638 227.966 88.2342 233 94.4386 235.246L93.2645 228.718L93.2555 228.709Z" fill="white"/>
<path d="M93.4191 237.116C94.9971 236.624 95.9532 235.157 95.5545 233.841C95.1558 232.524 93.5534 231.856 91.9753 232.349C90.3973 232.841 89.4412 234.308 89.8399 235.624C90.2386 236.941 91.841 237.609 93.4191 237.116Z" fill="white"/>
<path d="M130.599 299.069L125.849 300.554C121.694 280.456 113.232 261.835 101.013 245.57C98.945 242.81 96.7685 240.124 94.4837 237.511C94.303 237.309 94.1315 237.108 93.9508 236.906C93.707 236.631 93.4722 236.356 93.2193 236.09C93.1651 236.017 93.0929 235.943 93.0297 235.879C93.0026 235.833 92.9574 235.797 92.9213 235.76C92.8942 235.723 92.8581 235.686 92.831 235.659C92.8219 235.65 92.8039 235.631 92.7948 235.622C92.7226 235.54 92.6504 235.457 92.5781 235.384C92.4968 235.292 92.4246 235.21 92.3433 235.118C92.271 235.045 92.1988 234.962 92.1356 234.889C92.0724 234.815 92.0001 234.733 91.9369 234.669C91.7382 234.449 91.5305 234.238 91.3318 234.018C91.3318 234.018 91.2867 233.963 91.2596 233.935C91.3228 233.935 91.377 233.963 91.4311 233.972C91.5395 233.999 91.666 234.027 91.7743 234.054C91.9459 234.091 92.1265 234.137 92.2891 234.183C92.2981 234.183 92.3072 234.183 92.3072 234.183C92.3794 234.21 92.4607 234.22 92.5329 234.238C92.7226 234.284 92.9032 234.33 93.0929 234.375C93.2464 234.412 93.3999 234.449 93.5535 234.485C93.6438 234.504 93.7431 234.531 93.8334 234.55C93.8334 234.55 93.8334 234.55 93.8425 234.55C93.9237 234.568 94.005 234.586 94.0773 234.605C94.0863 234.614 94.1044 234.632 94.1134 234.65C94.1766 234.715 94.2308 234.77 94.294 234.834C94.3121 234.852 94.3211 234.861 94.3392 234.88C94.3392 234.88 94.3392 234.889 94.3572 234.898C94.6462 235.191 94.9262 235.494 95.2062 235.797C95.2062 235.797 95.2874 235.879 95.3236 235.925C97.3465 238.07 99.3063 240.28 101.221 242.563C101.772 243.214 102.305 243.874 102.846 244.534C103.497 245.332 104.147 246.148 104.788 246.964C104.788 246.964 104.788 246.964 104.788 246.973C105.086 247.349 105.384 247.743 105.682 248.119C117.522 263.55 126.716 281.3 130.554 299.059L130.599 299.069Z" fill="white"/>
<path d="M1238.02 251.988C1237.89 251.566 1237.66 251.154 1237.36 250.787C1237.93 251.071 1238.27 251.612 1238.66 252.061C1238.86 252.309 1239.07 252.529 1239.29 252.749L1239.18 250.989C1240.23 252.492 1240.93 253.492 1241.38 254.161L1241.43 253.327C1242.52 254.298 1243.16 255.059 1243.52 255.619C1243.76 255.151 1243.71 254.601 1243.44 253.482C1244.08 254.482 1244.29 254.564 1244.47 256.022C1244.64 255.5 1244.68 254.922 1244.55 254.298C1245.52 255.325 1246.23 256.481 1246.51 257.636C1246.72 255.811 1248.07 258.534 1248.92 259.24C1248.84 259.048 1248.76 258.855 1248.66 258.663C1249.27 259.094 1249.86 259.635 1250.36 260.276C1250.12 259.268 1249.62 258.223 1249.25 257.333C1250.39 258.268 1251.37 259.68 1251.84 261.386C1252.03 260.432 1252.04 259.433 1251.85 258.443C1252.73 259.515 1253.39 260.955 1253.62 262.596L1253.7 262.651C1253.69 262.248 1253.65 261.844 1253.56 261.45C1253.91 261.872 1254.22 262.348 1254.49 262.871C1254.09 258.47 1251.47 254.161 1247.53 251.484C1243.5 248.742 1238.17 247.77 1233.53 248.935L1238 251.979L1238.02 251.988Z" fill="white"/>
<path d="M1237.76 249.155C1237.34 248.926 1236.88 248.761 1236.41 248.687C1237.01 248.531 1237.64 248.715 1238.25 248.807C1238.56 248.862 1238.88 248.898 1239.2 248.917L1237.79 247.67C1239.64 248.119 1240.87 248.421 1241.68 248.623L1241.07 247.972C1242.55 247.99 1243.56 248.156 1244.23 248.33C1244.04 247.825 1243.59 247.44 1242.56 246.771C1243.75 247.101 1243.95 247.037 1245.17 248.009C1244.89 247.505 1244.48 247.046 1243.93 246.661C1245.36 246.799 1246.71 247.211 1247.78 247.899C1246.55 246.395 1249.52 247.56 1250.63 247.541C1250.43 247.44 1250.22 247.358 1250.02 247.275C1250.76 247.193 1251.56 247.23 1252.38 247.385C1251.46 246.78 1250.32 246.322 1249.4 245.891C1250.89 245.854 1252.61 246.276 1254.22 247.257C1253.63 246.414 1252.87 245.653 1252 245.038C1253.41 245.267 1254.95 245.928 1256.35 247.019H1256.44C1256.12 246.716 1255.79 246.441 1255.43 246.184C1255.99 246.276 1256.55 246.432 1257.13 246.652C1253.53 243.599 1248.5 242.058 1243.81 242.599C1239.01 243.15 1234.68 245.882 1232.43 249.769L1237.76 249.155Z" fill="white"/>
<path d="M1233.97 253.868C1234.17 253.547 1234.32 253.189 1234.39 252.813C1234.55 253.391 1234.35 253.95 1234.25 254.5C1234.22 254.629 1234.19 254.748 1234.17 254.876L1235.34 253.895L1234.36 257.003L1235.71 255.876L1234.68 259.158C1235.39 258.599 1236.03 257.975 1236.59 257.315C1236.29 258.168 1235.67 259.195 1234.74 260.258V260.276L1236 259.644L1235.4 261.542C1236.02 261.175 1236.58 260.717 1237.04 260.185C1236.86 261.349 1236.3 262.559 1235.34 263.605C1236.41 262.889 1237.41 262.009 1238.21 261.056C1237.81 262.202 1236.84 263.65 1235.33 265.081C1236.46 264.256 1237.6 263.284 1238.58 262.33C1237.95 263.174 1236.61 265.273 1235.75 267.602C1237.73 266.273 1237.72 265.558 1238.04 264.622C1238.07 265.943 1236.82 268.006 1235.85 269.335V269.399C1236.78 268.95 1237.6 268.345 1238.28 267.611C1238 268.886 1236.15 271.902 1236.15 271.902C1236.45 271.664 1236.73 271.398 1236.98 271.123C1236.93 271.37 1236.86 271.627 1236.78 271.875C1239.91 268.913 1241.51 264.586 1240.99 260.322C1240.45 255.811 1237.55 251.475 1233.37 248.926L1233.97 253.877V253.868Z" fill="white"/>
<path d="M1230.55 251.53C1230.78 251.154 1231.08 250.824 1231.45 250.558C1230.83 250.677 1230.39 251.108 1229.92 251.438C1229.68 251.621 1229.42 251.777 1229.17 251.933L1229.65 250.264C1228.3 251.429 1227.42 252.208 1226.84 252.722L1226.98 251.906C1225.71 252.538 1224.94 253.097 1224.46 253.538C1224.33 253.024 1224.48 252.501 1224.98 251.484C1224.14 252.272 1223.92 252.3 1223.45 253.657C1223.38 253.097 1223.48 252.529 1223.73 251.961C1222.57 252.685 1221.64 253.602 1221.12 254.647C1221.31 252.822 1219.43 255.078 1218.44 255.527C1218.56 255.362 1218.69 255.197 1218.81 255.041C1218.13 255.289 1217.45 255.646 1216.83 256.132C1217.27 255.215 1217.97 254.344 1218.52 253.583C1217.21 254.17 1215.97 255.261 1215.15 256.792C1215.16 255.811 1215.36 254.839 1215.76 253.932C1214.68 254.72 1213.74 255.93 1213.17 257.471L1213.08 257.498C1213.18 257.113 1213.3 256.737 1213.46 256.371C1213.03 256.682 1212.63 257.058 1212.27 257.489C1213.57 253.336 1217.03 249.888 1221.41 248.394C1225.91 246.863 1231.28 247.413 1235.53 249.843L1230.54 251.539L1230.55 251.53Z" fill="white"/>
<path d="M1228.66 247.844C1229.09 247.697 1229.57 247.624 1230.05 247.642C1229.47 247.367 1228.82 247.431 1228.21 247.395C1227.89 247.395 1227.58 247.358 1227.27 247.321L1228.8 246.368C1226.92 246.441 1225.67 246.496 1224.85 246.542L1225.51 246.01C1224.05 245.735 1223.04 245.699 1222.36 245.744C1222.61 245.286 1223.09 244.993 1224.2 244.534C1222.98 244.626 1222.79 244.516 1221.47 245.249C1221.8 244.8 1222.26 244.433 1222.86 244.158C1221.43 244.021 1220.04 244.158 1218.91 244.626C1220.3 243.379 1217.24 243.947 1216.14 243.709C1216.35 243.654 1216.56 243.608 1216.77 243.571C1216.05 243.351 1215.25 243.223 1214.41 243.214C1215.4 242.792 1216.56 242.563 1217.53 242.325C1216.06 241.994 1214.32 242.077 1212.61 242.719C1213.29 241.994 1214.13 241.398 1215.06 240.958C1213.64 240.913 1212.05 241.252 1210.54 242.059L1210.45 242.031C1210.79 241.802 1211.15 241.6 1211.53 241.417C1210.97 241.398 1210.4 241.444 1209.8 241.545C1213.71 239.235 1218.86 238.712 1223.43 240.17C1228.12 241.664 1232.09 245.222 1233.88 249.503L1228.67 247.844H1228.66Z" fill="white"/>
<path d="M1230.9 246.579C1231.29 246.698 1231.68 246.872 1232.03 247.101C1231.7 246.579 1231.11 246.285 1230.62 245.946C1230.5 245.873 1230.38 245.79 1230.27 245.717L1231.9 245.754L1228.77 244.039L1230.64 244.085L1227.34 242.27C1228.29 242.27 1229.25 242.352 1230.17 242.508C1229.28 242.049 1228.03 241.664 1226.53 241.426L1226.51 241.408L1227.93 241.142L1226.01 240.097C1226.75 240.005 1227.51 240.014 1228.27 240.133C1227.23 239.381 1225.88 238.822 1224.37 238.611C1225.71 238.501 1227.13 238.565 1228.46 238.804C1227.28 238.199 1225.44 237.694 1223.21 237.539C1224.69 237.484 1226.28 237.529 1227.75 237.649C1226.63 237.392 1224.02 236.64 1221.57 235.43C1224.07 235.237 1224.61 235.769 1225.57 236.273C1224.57 235.283 1222.05 234.495 1220.29 234.091L1220.25 234.045C1221.28 233.834 1222.35 233.798 1223.42 233.935C1222.24 233.156 1218.52 232.019 1218.52 232.019C1218.93 232.019 1219.34 232.047 1219.74 232.102C1219.51 231.946 1219.26 231.799 1219 231.671C1223.61 232.01 1228.14 234.256 1231.07 237.704C1234.17 241.353 1235.38 246.258 1234.29 250.595L1230.9 246.597V246.579Z" fill="white"/>
<path d="M1233.89 243.929C1234.09 244.277 1234.23 244.644 1234.3 245.038C1234.47 244.479 1234.27 243.892 1234.19 243.333C1234.17 243.205 1234.15 243.076 1234.13 242.948L1235.28 244.076L1234.36 240.858L1235.68 242.15L1234.73 238.749C1235.41 239.391 1236.04 240.097 1236.59 240.821C1236.31 239.931 1235.71 238.831 1234.81 237.658V237.639L1236.04 238.428L1235.49 236.466C1236.1 236.906 1236.64 237.428 1237.1 238.024C1236.95 236.842 1236.41 235.567 1235.48 234.403C1236.54 235.246 1237.52 236.246 1238.29 237.291C1237.91 236.099 1236.98 234.54 1235.5 232.927C1236.61 233.889 1237.72 234.99 1238.69 236.072C1238.08 235.146 1236.78 232.89 1235.96 230.46C1237.92 232.028 1237.9 232.734 1238.19 233.715C1238.25 232.395 1237.05 230.185 1236.1 228.746V228.682C1237.02 229.241 1237.82 229.947 1238.49 230.763C1238.25 229.461 1236.47 226.215 1236.47 226.215C1236.76 226.49 1237.03 226.784 1237.28 227.096C1237.24 226.839 1237.17 226.582 1237.09 226.316C1240.16 229.654 1241.66 234.164 1241.06 238.364C1240.42 242.801 1237.43 246.78 1233.2 248.825L1233.9 243.956L1233.89 243.929Z" fill="white"/>
<path d="M1232.68 249.137C1232.46 249.999 1233.04 250.906 1233.98 251.163C1234.92 251.42 1235.87 250.934 1236.1 250.072C1236.32 249.21 1235.75 248.302 1234.81 248.046C1233.87 247.789 1232.91 248.275 1232.68 249.137Z" fill="white"/>
<path d="M1221.5 302.827L1217.21 301.59C1218.42 281.859 1224.96 266.218 1232.75 251.089C1232.77 251.062 1232.78 251.016 1232.81 250.979C1232.86 250.888 1232.9 250.796 1232.95 250.704C1232.95 250.704 1232.97 250.649 1232.98 250.622C1233 250.594 1233.01 250.567 1233.02 250.549C1233.06 250.466 1233.11 250.383 1233.15 250.301C1233.18 250.246 1233.22 250.182 1233.24 250.127C1233.27 250.081 1233.3 250.017 1233.33 249.971C1233.33 249.962 1233.34 249.943 1233.34 249.934C1233.39 249.907 1233.43 249.879 1233.48 249.852C1233.48 249.852 1233.56 249.797 1233.61 249.769C1233.71 249.714 1233.8 249.659 1233.9 249.604C1233.99 249.549 1234.08 249.494 1234.17 249.448C1234.17 249.448 1234.2 249.43 1234.22 249.421C1234.22 249.421 1234.23 249.421 1234.24 249.421C1234.24 249.421 1234.31 249.375 1234.34 249.357C1234.38 249.329 1234.43 249.311 1234.46 249.283C1234.46 249.283 1234.53 249.247 1234.55 249.228C1234.68 249.155 1234.8 249.072 1234.93 248.999C1234.86 249.137 1234.8 249.274 1234.73 249.412C1234.73 249.412 1234.7 249.485 1234.68 249.522C1234.68 249.522 1234.64 249.604 1234.63 249.641C1234.63 249.641 1234.61 249.668 1234.61 249.678C1234.6 249.705 1234.59 249.723 1234.57 249.742C1234.53 249.843 1234.47 249.943 1234.43 250.035C1234.43 250.035 1234.43 250.044 1234.42 250.053C1234.39 250.118 1234.35 250.182 1234.32 250.255V250.273C1234.27 250.347 1234.24 250.42 1234.21 250.493L1234.2 250.512C1234.17 250.576 1234.13 250.649 1234.1 250.714C1234.07 250.778 1234.04 250.833 1234.01 250.906C1233.98 250.979 1233.93 251.062 1233.89 251.144C1233.82 251.291 1233.76 251.429 1233.7 251.575C1233.7 251.575 1233.68 251.603 1233.68 251.612C1233.59 251.786 1233.5 251.97 1233.43 252.144C1226.09 267.73 1222.01 285.022 1221.5 302.846L1221.5 302.827Z" fill="white"/>
<path d="M1190.39 230.094C1194.37 228.306 1199.33 228.306 1203.52 230.13C1207.81 231.992 1211.19 235.723 1212.4 239.932L1207.64 237.869C1208.08 237.768 1208.53 237.749 1208.99 237.814C1208.47 237.502 1207.84 237.493 1207.27 237.401C1206.97 237.364 1206.67 237.309 1206.38 237.236L1207.94 236.484C1206.15 236.374 1204.94 236.301 1204.16 236.264L1204.85 235.833C1203.5 235.43 1202.53 235.301 1201.88 235.274C1202.17 234.87 1202.67 234.632 1203.76 234.311C1202.6 234.284 1202.42 234.165 1201.08 234.715C1201.45 234.33 1201.93 234.027 1202.52 233.825C1201.18 233.55 1199.84 233.55 1198.71 233.88C1200.18 232.844 1197.2 233.083 1196.18 232.753C1196.38 232.716 1196.59 232.698 1196.8 232.679C1196.13 232.395 1195.39 232.202 1194.59 232.111C1195.58 231.808 1196.72 231.707 1197.67 231.579C1196.3 231.121 1194.63 231.029 1192.93 231.469C1193.66 230.855 1194.52 230.378 1195.46 230.057C1194.12 229.874 1192.56 230.039 1191.04 230.653" fill="white"/>
<path d="M1209.91 236.457C1210.32 236.649 1210.7 236.915 1211.01 237.236C1210.82 236.695 1210.34 236.31 1209.95 235.898C1209.73 235.687 1209.54 235.467 1209.35 235.237L1211.12 235.65C1209.78 234.476 1208.88 233.697 1208.29 233.193L1209.14 233.303C1208.35 232.193 1207.69 231.506 1207.18 231.093C1207.7 230.974 1208.26 231.112 1209.35 231.543C1208.45 230.809 1208.4 230.616 1206.95 230.204C1207.52 230.149 1208.11 230.231 1208.72 230.442C1207.85 229.434 1206.8 228.618 1205.67 228.159C1207.56 228.306 1205.03 226.665 1204.47 225.803C1204.65 225.904 1204.83 226.014 1205.01 226.133C1204.68 225.528 1204.23 224.932 1203.66 224.391C1204.65 224.776 1205.62 225.39 1206.47 225.876C1205.72 224.721 1204.47 223.639 1202.8 222.924C1203.81 222.924 1204.84 223.107 1205.81 223.447C1204.87 222.493 1203.53 221.677 1201.89 221.182L1201.86 221.109C1202.26 221.191 1202.67 221.301 1203.06 221.439C1202.69 221.063 1202.26 220.714 1201.77 220.394C1206.19 221.53 1210.12 224.547 1212.14 228.398C1214.22 232.349 1214.25 237.08 1212.22 240.839L1209.92 236.457H1209.91Z" fill="white"/>
<path d="M1216.7 242.27C1216.53 241.875 1216.28 241.509 1215.95 241.188C1216.52 241.408 1216.89 241.894 1217.31 242.288C1217.51 242.508 1217.74 242.701 1217.96 242.893L1217.68 241.234C1218.83 242.572 1219.59 243.462 1220.09 244.058L1220.04 243.26C1221.18 244.085 1221.85 244.754 1222.25 245.25C1222.43 244.791 1222.33 244.268 1221.96 243.223C1222.67 244.113 1222.87 244.177 1223.19 245.552C1223.3 245.039 1223.28 244.479 1223.09 243.902C1224.11 244.791 1224.9 245.827 1225.29 246.909C1225.29 245.158 1226.85 247.624 1227.73 248.22C1227.64 248.046 1227.53 247.863 1227.42 247.698C1228.04 248.055 1228.65 248.514 1229.19 249.082C1228.87 248.138 1228.28 247.193 1227.84 246.377C1229.02 247.166 1230.08 248.422 1230.71 250.008C1230.79 249.082 1230.69 248.128 1230.41 247.202C1231.36 248.147 1232.13 249.458 1232.51 250.998L1232.6 251.044C1232.54 250.659 1232.46 250.283 1232.34 249.907C1232.71 250.274 1233.06 250.705 1233.36 251.172C1232.53 247.019 1229.61 243.15 1225.62 240.959C1221.53 238.703 1216.42 238.263 1212.17 239.785L1216.7 242.279V242.27Z" fill="white"/>
<path d="M1210.23 243.847C1210.24 243.489 1210.33 243.132 1210.48 242.793C1210.04 243.15 1209.88 243.7 1209.66 244.186C1209.61 244.296 1209.56 244.406 1209.5 244.516L1209.14 243.104L1208.18 246.047L1207.76 244.425L1206.74 247.533C1206.51 246.708 1206.35 245.873 1206.29 245.057C1206.04 245.882 1205.95 247.019 1206.08 248.349V248.367L1205.45 247.184L1204.86 248.981C1204.59 248.358 1204.41 247.698 1204.35 247.019C1203.84 248.019 1203.61 249.266 1203.76 250.604C1203.33 249.458 1203.05 248.22 1202.96 247.047C1202.63 248.156 1202.58 249.816 1202.96 251.759C1202.55 250.494 1202.21 249.11 1201.97 247.826C1201.99 248.835 1201.86 251.191 1201.25 253.483C1200.45 251.356 1200.85 250.806 1201.12 249.907C1200.37 250.916 1200.19 253.199 1200.21 254.776L1200.17 254.822C1199.71 253.96 1199.41 253.034 1199.29 252.099C1198.79 253.236 1198.55 256.6 1198.55 256.6C1198.45 256.252 1198.38 255.894 1198.33 255.537C1198.23 255.757 1198.15 255.995 1198.08 256.243C1197.29 252.218 1198.46 247.982 1201.22 244.966C1204.15 241.775 1208.79 240.024 1213.44 240.363L1210.24 243.856L1210.23 243.847Z" fill="white"/>
<path d="M1208.02 241.875C1208.24 241.582 1208.51 241.325 1208.84 241.124C1208.24 241.206 1207.81 241.591 1207.34 241.885C1207.23 241.958 1207.13 242.022 1207.02 242.086L1207.49 240.748L1205 242.728L1205.53 241.188L1202.89 243.278C1203.15 242.49 1203.48 241.71 1203.88 241.004C1203.2 241.573 1202.49 242.471 1201.86 243.636H1201.85L1201.96 242.361L1200.44 243.572C1200.55 242.921 1200.75 242.288 1201.07 241.701C1200.07 242.288 1199.16 243.205 1198.56 244.397C1198.81 243.242 1199.25 242.086 1199.82 241.059C1198.92 241.82 1197.94 243.168 1197.2 244.965H1197.19C1197.54 243.718 1198 242.407 1198.5 241.234C1197.96 242.077 1196.53 243.975 1194.71 245.57C1195.19 243.416 1195.85 243.159 1196.59 242.545C1195.36 243.022 1193.93 244.828 1193.07 246.139L1193 246.157C1193.07 245.222 1193.32 244.314 1193.74 243.48C1192.66 244.186 1190.58 246.854 1190.58 246.854C1190.68 246.515 1190.82 246.185 1190.98 245.873C1190.77 246.01 1190.57 246.166 1190.37 246.331C1191.91 242.618 1195.31 239.666 1199.43 238.483C1203.8 237.236 1208.89 238.006 1212.82 240.5L1208.03 241.866L1208.02 241.875Z" fill="white"/>
<path d="M1214.16 243.929C1214.2 243.517 1214.15 243.095 1214.01 242.673C1214.42 243.104 1214.52 243.682 1214.71 244.195C1214.8 244.47 1214.89 244.736 1215.01 244.993L1215.57 243.434C1215.97 245.075 1216.22 246.166 1216.38 246.891L1216.74 246.185C1217.37 247.377 1217.66 248.238 1217.78 248.844C1218.16 248.513 1218.34 248.027 1218.51 246.964C1218.71 248.037 1218.87 248.174 1218.49 249.494C1218.84 249.1 1219.09 248.605 1219.21 248.027C1219.71 249.229 1219.92 250.457 1219.74 251.548C1220.61 250.035 1220.81 252.823 1221.32 253.721C1221.32 253.529 1221.32 253.336 1221.31 253.134C1221.7 253.703 1222.03 254.363 1222.24 255.078C1222.4 254.125 1222.34 253.061 1222.34 252.163C1223.03 253.345 1223.38 254.876 1223.17 256.508C1223.7 255.738 1224.08 254.876 1224.28 253.96C1224.68 255.17 1224.74 256.628 1224.32 258.131L1224.38 258.205C1224.51 257.856 1224.63 257.489 1224.71 257.114C1224.87 257.59 1224.97 258.104 1225.02 258.645C1226.31 254.702 1225.54 250.118 1222.99 246.533C1220.36 242.856 1215.9 240.308 1211.26 239.831L1214.17 243.911L1214.16 243.929Z" fill="white"/>
<path d="M1216.11 238.657C1215.72 238.584 1215.32 238.566 1214.92 238.621C1215.41 238.318 1216.03 238.318 1216.6 238.236C1216.74 238.226 1216.86 238.208 1216.99 238.181L1215.58 237.511L1218.95 237.392L1217.33 236.622L1220.89 236.494C1220.08 236.081 1219.22 235.742 1218.37 235.476C1219.31 235.476 1220.54 235.668 1221.92 236.108H1221.94L1220.84 235.256L1222.9 235.182C1222.3 234.788 1221.64 234.467 1220.95 234.247C1222.14 234.045 1223.51 234.146 1224.9 234.623C1223.79 233.954 1222.55 233.395 1221.33 233.028C1222.58 233.019 1224.36 233.376 1226.33 234.201C1225.07 233.523 1223.7 232.872 1222.39 232.349C1223.46 232.615 1226 233.092 1228.58 233.11C1226.52 231.873 1225.83 232.093 1224.81 232.111C1226.07 231.698 1228.54 232.111 1230.2 232.514L1230.26 232.487C1229.46 231.863 1228.55 231.368 1227.58 231.029C1228.91 230.873 1232.54 231.487 1232.54 231.487C1232.19 231.313 1231.84 231.167 1231.47 231.038C1231.73 231.011 1232 230.992 1232.28 230.983C1228.2 229.287 1223.41 229.269 1219.53 230.956C1215.42 232.753 1212.4 236.42 1211.61 240.61L1216.12 238.648L1216.11 238.657Z" fill="white"/>
<path d="M1213.84 240.885C1213.54 241.673 1212.58 242.059 1211.71 241.738C1210.84 241.417 1210.38 240.509 1210.68 239.721C1210.97 238.932 1211.93 238.547 1212.8 238.868C1213.67 239.189 1214.13 240.096 1213.84 240.885Z" fill="white"/>
<path d="M1210.95 299.784L1207.42 298.766C1210.62 287.141 1212.87 270.72 1212.92 256.811C1212.92 256.481 1212.92 256.16 1212.92 255.83C1212.9 250.751 1212.58 246.029 1211.87 242.05C1211.85 241.958 1211.84 241.876 1211.83 241.784C1211.81 241.683 1211.79 241.591 1211.77 241.5C1211.74 241.298 1211.7 241.105 1211.65 240.913C1211.65 240.895 1211.65 240.876 1211.64 240.849C1211.62 240.775 1211.61 240.702 1211.59 240.638C1211.59 240.638 1211.59 240.638 1211.59 240.629C1211.59 240.629 1211.59 240.619 1211.59 240.61C1211.59 240.574 1211.57 240.537 1211.56 240.5C1211.56 240.445 1211.55 240.39 1211.53 240.344C1211.53 240.308 1211.52 240.28 1211.51 240.244C1211.48 240.124 1211.46 240.005 1211.43 239.886C1211.42 239.831 1211.4 239.776 1211.39 239.73C1211.37 239.648 1211.36 239.565 1211.34 239.483C1211.34 239.455 1211.33 239.428 1211.32 239.4C1211.31 239.373 1211.3 239.345 1211.29 239.318C1211.28 239.226 1211.25 239.134 1211.22 239.042C1211.22 239.024 1211.21 238.997 1211.2 238.969C1211.18 238.905 1211.18 238.859 1211.17 238.804C1211.14 238.694 1211.11 238.593 1211.09 238.483C1211.09 238.446 1211.07 238.419 1211.06 238.391C1211.04 238.318 1211.02 238.254 1211 238.181C1210.96 238.016 1210.91 237.86 1210.86 237.704C1210.99 237.823 1211.1 237.942 1211.23 238.071C1211.27 238.107 1211.31 238.153 1211.35 238.19C1211.36 238.208 1211.37 238.226 1211.39 238.236C1211.43 238.272 1211.46 238.3 1211.49 238.336C1211.56 238.401 1211.62 238.456 1211.69 238.529C1211.72 238.566 1211.74 238.584 1211.78 238.612C1211.81 238.639 1211.83 238.657 1211.85 238.676C1211.88 238.703 1211.92 238.74 1211.95 238.777C1211.97 238.795 1211.99 238.813 1212.01 238.832C1212.01 238.832 1212.02 238.841 1212.02 238.85C1212.03 238.859 1212.04 238.868 1212.05 238.877C1212.12 238.951 1212.2 239.024 1212.27 239.088C1212.29 239.162 1212.3 239.226 1212.32 239.299C1212.36 239.428 1212.4 239.556 1212.43 239.684C1212.46 239.776 1212.49 239.877 1212.51 239.978C1212.51 239.978 1212.52 240.023 1212.53 240.051C1212.53 240.079 1212.54 240.097 1212.55 240.124C1212.55 240.152 1212.56 240.17 1212.57 240.198C1212.57 240.198 1212.57 240.198 1212.57 240.207C1212.57 240.225 1212.57 240.234 1212.58 240.253C1212.58 240.271 1212.58 240.289 1212.59 240.308C1212.59 240.326 1212.59 240.344 1212.6 240.372C1212.6 240.381 1212.6 240.39 1212.6 240.399C1212.61 240.454 1212.63 240.5 1212.64 240.555C1212.68 240.72 1212.72 240.885 1212.76 241.06C1212.77 241.105 1212.77 241.151 1212.78 241.188C1212.83 241.371 1212.86 241.564 1212.9 241.756C1212.94 241.931 1212.97 242.105 1213.01 242.288C1213.01 242.316 1213.02 242.343 1213.03 242.371C1213.04 242.435 1213.05 242.49 1213.06 242.554C1213.62 245.543 1214.06 249.275 1214.35 253.455C1214.38 254.015 1214.42 254.583 1214.45 255.161C1215.28 269.39 1214.43 288.003 1210.93 299.784H1210.95Z" fill="white"/>
<path d="M1277.5 230.094C1274.67 224.217 1268.96 219.477 1262.35 217.56C1255.58 215.598 1248.04 216.644 1242.51 220.329L1250.02 222.511C1249.61 221.989 1249.1 221.53 1248.52 221.164C1249.42 221.301 1250.14 221.888 1250.9 222.337C1251.29 222.585 1251.69 222.805 1252.09 223.006L1251.02 220.641C1253.21 222.236 1254.64 223.3 1255.6 224.015L1255.22 222.851C1257.18 223.694 1258.41 224.455 1259.18 225.06C1259.25 224.318 1258.9 223.575 1257.96 222.154C1259.34 223.236 1259.65 223.263 1260.66 225.179C1260.61 224.382 1260.35 223.566 1259.86 222.768C1261.68 223.74 1263.22 225.014 1264.2 226.481C1263.52 223.887 1266.72 227.013 1268.23 227.609C1268.03 227.38 1267.82 227.151 1267.59 226.931C1268.63 227.242 1269.69 227.728 1270.68 228.388C1269.84 227.105 1268.63 225.895 1267.67 224.831C1269.69 225.61 1271.7 227.105 1273.23 229.241" fill="white"/>
<path d="M1273.23 229.25C1272.98 227.848 1272.46 226.472 1271.7 225.198C1273.42 226.28 1275.05 227.958 1276.22 230.122" fill="white"/>
<path d="M1235.26 218.917C1235.85 218.633 1236.5 218.45 1237.18 218.395C1236.31 218.11 1235.41 218.303 1234.55 218.367C1234.09 218.413 1233.64 218.422 1233.2 218.431L1235.16 216.79C1232.52 217.221 1230.77 217.524 1229.62 217.725L1230.46 216.854C1228.34 216.717 1226.91 216.836 1225.96 217.029C1226.21 216.332 1226.83 215.818 1228.29 214.975C1226.59 215.323 1226.3 215.195 1224.59 216.469C1224.96 215.772 1225.54 215.167 1226.32 214.672C1224.28 214.718 1222.35 215.158 1220.85 216.029C1222.55 214.003 1218.34 215.351 1216.75 215.204C1217.03 215.085 1217.32 214.984 1217.61 214.892C1216.55 214.7 1215.39 214.654 1214.22 214.791C1215.52 214.021 1217.12 213.49 1218.43 212.976C1216.29 212.756 1213.85 213.178 1211.56 214.406C1212.38 213.26 1213.43 212.252 1214.65 211.463C1212.64 211.647 1210.47 212.417 1208.51 213.82L1208.37 213.792C1208.81 213.407 1209.28 213.049 1209.77 212.729C1208.99 212.802 1208.18 212.958 1207.35 213.214C1212.39 209.226 1219.54 207.576 1226.28 208.869C1233.2 210.189 1239.52 214.581 1242.92 220.403L1235.25 218.936L1235.26 218.917Z" fill="white"/>
<path d="M1241.18 226.931C1241.52 226.5 1241.77 226.005 1241.92 225.473C1242.09 226.307 1241.72 227.087 1241.51 227.857C1241.45 228.031 1241.4 228.205 1241.36 228.379L1243.16 227.096L1241.38 231.414L1243.44 229.947L1241.56 234.504C1242.64 233.78 1243.64 232.964 1244.52 232.084C1243.98 233.266 1242.97 234.66 1241.53 236.072V236.099L1243.41 235.32L1242.32 237.951C1243.25 237.493 1244.1 236.897 1244.83 236.191C1244.44 237.832 1243.49 239.483 1241.99 240.876C1243.61 239.969 1245.15 238.822 1246.4 237.557C1245.69 239.143 1244.13 241.105 1241.79 242.985V243.003C1243.51 241.931 1245.26 240.674 1246.79 239.409C1245.79 240.546 1243.61 243.388 1242.09 246.616C1245.1 244.929 1245.18 243.92 1245.74 242.618C1245.62 244.507 1243.59 247.303 1242.01 249.091V249.183C1243.4 248.642 1244.65 247.863 1245.71 246.891C1245.17 248.679 1242.15 252.777 1242.15 252.777C1242.6 252.465 1243.04 252.126 1243.44 251.759C1243.33 252.108 1243.21 252.465 1243.04 252.814C1247.9 248.926 1250.71 242.939 1250.49 236.824C1250.24 230.351 1246.61 223.887 1240.93 219.825L1241.19 226.922L1241.18 226.931Z" fill="white"/>
<path d="M1245.64 226.774C1245.67 226.234 1245.61 225.674 1245.44 225.124C1246.04 225.793 1246.17 226.655 1246.42 227.435C1246.48 227.618 1246.53 227.792 1246.6 227.966L1247.37 225.977L1248.3 230.644L1249.2 228.361L1250.18 233.293C1250.67 232.138 1251.04 230.937 1251.27 229.736C1251.49 231.038 1251.44 232.752 1251.01 234.696L1251.03 234.724L1252.15 233.147L1252.72 235.998C1253.23 235.145 1253.6 234.219 1253.82 233.238C1254.4 234.879 1254.54 236.796 1254.07 238.749C1254.92 237.172 1255.55 235.42 1255.89 233.697C1256.19 235.448 1255.98 237.923 1255.08 240.701C1255.91 238.941 1256.66 236.997 1257.22 235.145C1257.03 236.64 1256.81 240.188 1257.33 243.773C1258.9 240.839 1258.39 239.913 1258.14 238.492C1259.09 240.216 1258.96 243.672 1258.66 246.001L1258.72 246.074C1259.56 244.937 1260.16 243.654 1260.49 242.288C1261.05 244.131 1260.83 249.201 1260.83 249.201C1261.04 248.706 1261.2 248.201 1261.33 247.679C1261.43 248.036 1261.52 248.412 1261.59 248.797C1263.45 243.039 1262.44 236.392 1258.84 231.084C1255.04 225.463 1248.43 221.475 1241.46 220.586L1245.63 226.747L1245.64 226.774Z" fill="white"/>
<path d="M1236.56 223.254C1236.92 222.741 1237.4 222.3 1237.96 221.961C1237.06 222.071 1236.38 222.631 1235.66 223.052C1235.29 223.291 1234.91 223.492 1234.53 223.676L1235.41 221.347C1233.34 222.86 1231.98 223.877 1231.09 224.547L1231.37 223.401C1229.48 224.171 1228.3 224.886 1227.57 225.464C1227.45 224.721 1227.74 223.987 1228.58 222.594C1227.28 223.63 1226.97 223.639 1226.11 225.528C1226.09 224.73 1226.29 223.923 1226.72 223.144C1224.98 224.052 1223.54 225.262 1222.66 226.701C1223.14 224.125 1220.17 227.141 1218.7 227.682C1218.89 227.453 1219.09 227.242 1219.3 227.031C1218.28 227.306 1217.27 227.756 1216.32 228.379C1217.06 227.123 1218.19 225.959 1219.07 224.932C1217.11 225.638 1215.2 227.059 1213.85 229.14C1213.99 227.747 1214.4 226.38 1215.06 225.143C1213.41 226.16 1211.92 227.783 1210.92 229.901L1210.79 229.938C1210.98 229.397 1211.21 228.874 1211.48 228.37C1210.83 228.764 1210.21 229.259 1209.63 229.837C1212.01 224.061 1217.38 219.522 1223.84 217.854C1230.47 216.139 1238.11 217.469 1243.92 221.365L1236.57 223.272L1236.56 223.254Z" fill="white"/>
<path d="M1239.49 219.323C1240.02 219.607 1240.49 219.974 1240.89 220.414C1240.62 219.598 1239.91 219.002 1239.33 218.37C1239.2 218.232 1239.06 218.085 1238.93 217.939L1241.21 218.516L1237.45 215.152L1240.06 215.821L1236.1 212.263C1237.44 212.575 1238.76 212.997 1239.99 213.51C1238.92 212.603 1237.31 211.658 1235.29 210.842V210.815L1237.37 210.907L1235.08 208.853C1236.15 208.963 1237.23 209.229 1238.25 209.641C1237.07 208.275 1235.39 207.065 1233.34 206.286C1235.27 206.579 1237.24 207.129 1239.02 207.872C1237.59 206.652 1235.19 205.378 1232.12 204.424C1234.22 204.828 1236.44 205.405 1238.47 206.056C1236.98 205.341 1233.59 203.452 1230.6 201.014C1234.19 201.564 1234.75 202.471 1235.92 203.471C1234.88 201.784 1231.64 199.895 1229.32 198.767L1229.28 198.685C1230.81 198.731 1232.34 199.024 1233.79 199.565C1232.41 198.107 1227.63 195.348 1227.63 195.348C1228.2 195.485 1228.76 195.65 1229.31 195.861C1229.04 195.577 1228.75 195.292 1228.43 195.027C1234.79 196.98 1240.32 201.536 1243.13 207.212C1246.11 213.208 1245.98 220.323 1242.78 225.906L1239.52 219.323H1239.49Z" fill="white"/>
<path d="M1240.91 228.064C1240.48 229.265 1241.2 230.612 1242.53 231.08C1243.84 231.548 1245.27 230.952 1245.7 229.751C1246.12 228.55 1245.41 227.202 1244.08 226.734C1242.76 226.267 1241.33 226.863 1240.91 228.064Z" fill="white"/>
<path d="M1243.47 221.999C1243.36 222.164 1243.24 222.329 1243.13 222.513C1243.08 222.595 1243.03 222.678 1242.98 222.751C1242.97 222.779 1242.94 222.806 1242.94 222.834C1242.85 222.962 1242.77 223.081 1242.69 223.21C1242.66 223.283 1242.6 223.356 1242.56 223.43C1242.5 223.53 1242.44 223.631 1242.37 223.732C1242.35 223.76 1242.34 223.787 1242.31 223.815C1242.07 224.227 1241.82 224.64 1241.57 225.071C1241.41 225.337 1241.26 225.621 1241.09 225.905C1240.32 227.28 1239.52 228.766 1238.73 230.352C1238.53 230.737 1238.33 231.14 1238.13 231.544C1238.05 231.709 1237.97 231.865 1237.89 232.03C1237.73 232.341 1237.58 232.662 1237.43 232.983C1237.34 233.167 1237.25 233.341 1237.17 233.515C1237.04 233.808 1236.9 234.102 1236.76 234.395C1236.59 234.771 1236.41 235.147 1236.23 235.523C1236.22 235.569 1236.2 235.605 1236.18 235.651C1236.04 235.954 1235.9 236.266 1235.76 236.577C1235.76 236.605 1235.74 236.632 1235.73 236.66C1234.86 238.604 1233.99 240.63 1233.13 242.739C1232.51 244.233 1231.9 245.773 1231.3 247.332C1231.3 247.35 1231.29 247.359 1231.29 247.369C1231.24 247.479 1231.2 247.589 1231.16 247.699C1231.14 247.745 1231.12 247.79 1231.1 247.836C1231.07 247.937 1231.02 248.038 1230.99 248.139C1230.84 248.515 1230.7 248.891 1230.55 249.267C1230.54 249.303 1230.52 249.349 1230.51 249.395C1230.45 249.551 1230.39 249.697 1230.34 249.853C1230.28 250 1230.23 250.138 1230.17 250.284C1230.13 250.394 1230.09 250.504 1230.06 250.614C1229.82 251.229 1229.6 251.861 1229.37 252.485C1229.16 253.062 1228.95 253.64 1228.75 254.227C1228.65 254.511 1228.55 254.786 1228.45 255.07C1222.62 271.592 1217.78 290.011 1216.51 303.352L1211.83 301.995C1212.92 289.617 1218.25 271.922 1224.39 256.207C1224.52 255.886 1224.65 255.565 1224.77 255.244C1224.96 254.758 1225.16 254.273 1225.35 253.787C1225.93 252.347 1226.51 250.935 1227.09 249.551C1227.09 249.532 1227.1 249.514 1227.1 249.496C1227.27 249.12 1227.42 248.753 1227.57 248.386C1228.02 247.341 1228.47 246.305 1228.91 245.297C1228.94 245.242 1228.95 245.187 1228.98 245.132C1228.98 245.132 1228.98 245.122 1228.98 245.113C1229.09 244.856 1229.21 244.6 1229.32 244.352C1229.34 244.279 1229.38 244.205 1229.42 244.141C1230.06 242.702 1230.7 241.308 1231.33 239.96C1233.29 235.798 1235.2 232.103 1236.97 229.087C1237.01 229.004 1237.06 228.912 1237.12 228.83C1237.16 228.775 1237.18 228.72 1237.22 228.665C1237.25 228.61 1237.28 228.555 1237.32 228.5C1238.28 226.886 1239.19 225.483 1240.04 224.328C1240.11 224.236 1240.17 224.154 1240.23 224.071C1240.49 223.732 1240.73 223.411 1240.98 223.118C1241.03 223.045 1241.08 222.99 1241.14 222.925C1241.29 222.861 1241.44 222.806 1241.58 222.742C1241.67 222.705 1241.75 222.669 1241.82 222.641H1241.84C1241.84 222.641 1241.92 222.595 1241.96 222.586C1242 222.559 1242.06 222.54 1242.1 222.522C1242.21 222.485 1242.32 222.439 1242.42 222.394C1242.48 222.366 1242.55 222.348 1242.6 222.32C1242.6 222.32 1242.65 222.302 1242.66 222.293C1242.73 222.265 1242.79 222.238 1242.85 222.21C1243.06 222.128 1243.26 222.045 1243.47 221.963V221.999Z" fill="white"/>
</svg>
