<?xml version="1.0" encoding="UTF-8"?>
<svg id="Layer_1" xmlns="http://www.w3.org/2000/svg" xmlns:xlink="http://www.w3.org/1999/xlink" version="1.1" viewBox="0 0 1254 99">
  <!-- Generator: Adobe Illustrator 30.1.0, SVG Export Plug-In . SVG Version: 2.1.1 Build 136)  -->
  <defs>
    <style>
      .st0 {
        fill: none;
      }

      .st1 {
        fill: #fff;
        fill-rule: evenodd;
      }

      .st2 {
        clip-path: url(#clippath);
      }
    </style>
    <clipPath id="clippath">
      <rect class="st0" width="1253.8" height="73"/>
    </clipPath>
  </defs>
  <g class="st2">
    <g>
      <path class="st1" d="M33.8,28.6h2.4c.5-6.6,6.2-11.8,13.3-11.8s1.4,0,2.1.2c2.7-7.6,10.3-13.1,19.4-13.1s13.2,3.4,16.9,8.5c1.3-.3,2.6-.4,3.9-.4,9.1,0,16.4,6.8,16.4,15.2s0,1,0,1.6h.2c5.9,0,10.7,4.8,10.7,10.7s-4.8,10.7-10.7,10.7H33.8c-5.9,0-10.8-4.8-10.8-10.7s4.8-10.7,10.8-10.7v-.2Z"/>
      <path class="st1" d="M261.1,78.1h-5.8c.1-.6.2-1.3.2-2,0-5.2-4.2-9.5-9.5-9.5s-1.4,0-2.1.2c-1.6-4-5.6-6.8-10.3-6.8s-2.3.2-3.4.5c-2.7-5-8.1-8.5-14.2-8.5s-14,5.3-15.7,12.3c-1.2-.4-2.4-.6-3.8-.6-5.1,0-9.4,3-10.8,7.2h-.5c-5.2,0-9.7,2.8-12.1,7h-12.1c-3.9,0-7,3.1-7,7s3.1,7,7,7h100c3.9,0,7-3.1,7-7s-3.1-7-7-7v.2Z"/>
      <path class="st1" d="M483.6,38c3.6-6.8,10.7-11.4,18.9-11.4s16.8,5.7,20,13.7c1.8-.8,3.8-1.2,5.9-1.2,7.1,0,13.1,4.9,14.7,11.4.8-.2,1.6-.3,2.5-.3,5.1,0,9.3,4.2,9.3,9.3s-.2,2.5-.7,3.6c2.3.3,4,2.3,4,4.6s-2.1,4.7-4.7,4.7h-123.1c-2.6,0-4.7-2.1-4.7-4.7s1.7-4.2,3.9-4.6v-.7c0-4.1,3.3-7.5,7.5-7.5s1.4,0,2,.3c.9-6.8,6.7-12.1,13.8-12.1s5.7.9,8,2.5c2.5-5.7,8.2-9.6,14.8-9.6s5.4.7,7.7,2h.2Z"/>
      <path class="st1" d="M1094.9,49.5c7.9,0,14.7,4.4,18.3,10.8,2.6-1.6,5.6-2.5,8.8-2.5,7.3,0,13.5,4.6,15.8,11.1.6,0,1.2-.2,1.9-.2,6,0,10.9,4.7,11.3,10.5.4,0,.7-.1,1.1-.1,3.4,0,6.1,2.7,6.1,6.1s-2.7,6.1-6.1,6.1h-96.7c-4.3,0-7.7-3.5-7.7-7.7s3.5-7.7,7.7-7.7,1.9.2,2.7.5c.4-7.5,6.6-13.4,14.2-13.4s1.9,0,2.9.3c2.9-8,10.6-13.8,19.7-13.8Z"/>
      <path class="st1" d="M927.2,45.5h-1.7c.3-.9.5-2,.5-3,0-5.1-4.2-9.3-9.4-9.3s-.8,0-1.2,0v-1.3c0-8-6.6-14.4-14.7-14.4s-4.2.5-6,1.3c-2.5-4.3-7.3-7.1-12.9-7.1s-2.1,0-3.1.3c-2.1-4.8-7.1-8.1-12.9-8.1s-12.9,4.9-13.9,11.3c-2.7-3.1-6.7-5-11.2-5-8.3,0-15,6.7-15,15s0,1.4.2,2c-7.9.4-14.2,7-14.2,15s6.7,15,14.8,15c10.6,0,21.2,0,31.8,0h68.2c7.4,0,7.9-11.1.5-11.6h.2Z"/>
    </g>
  </g>
</svg>