<svg width="200" height="200" viewBox="0 0 200 200" fill="none" xmlns="http://www.w3.org/2000/svg">
<path d="M26.5625 178.125C26.5625 186.719 33.5938 193.75 42.1875 193.75H157.812C166.406 193.75 173.438 186.719 173.438 178.125V21.875C173.438 13.2812 166.406 6.25 157.812 6.25H96.875C88.2812 6.25 81.25 13.2812 81.25 21.875V53.125C81.25 61.7188 74.2188 68.75 65.625 68.75H37.1875C31.25 68.75 26.5625 63.9062 26.5625 58.125V178.125Z" fill="white"/>
<path d="M96.4062 3.75L100 3.125L81.25 15.625V53.125C81.25 61.7188 74.2188 68.75 65.625 68.75H37.1875C31.25 68.75 26.5625 63.9062 26.5625 58.125C26.5625 55 27.9687 52.0312 30.3125 50L69.5312 16.4062C77.1875 9.6875 86.5625 5.3125 96.4062 3.75Z" fill="white"/>
<path d="M157.812 198.438H42.1875C30.9375 198.438 21.875 189.375 21.875 178.125V92.1875C21.875 89.5312 23.9062 87.5 26.5625 87.5C29.2188 87.5 31.25 89.5312 31.25 92.1875V178.125C31.25 184.219 36.0938 189.062 42.1875 189.062H157.812C163.906 189.062 168.75 184.219 168.75 178.125V21.875C168.75 15.7812 163.906 10.9375 157.812 10.9375H96.875C90.7812 10.9375 85.9375 15.7812 85.9375 21.875V53.125C85.9375 64.375 76.875 73.4375 65.625 73.4375H37.1875C28.75 73.4375 21.875 66.5625 21.875 58.125C21.875 53.5938 23.9062 49.375 27.1875 46.4062L56.25 21.4062C58.2812 19.6875 61.25 20 62.8125 21.875C64.375 23.75 64.2188 26.875 62.3438 28.4375L33.2812 53.4375C32.0312 54.6875 31.25 56.25 31.25 58.125C31.25 61.4062 33.9062 64.0625 37.1875 64.0625H65.625C71.7188 64.0625 76.5625 59.2188 76.5625 53.125V21.875C76.5625 10.625 85.625 1.5625 96.875 1.5625H157.812C169.062 1.5625 178.125 10.625 178.125 21.875V178.125C178.125 189.375 169.062 198.438 157.812 198.438Z" fill="#444B54"/>
<path d="M126.562 69.375C135.192 69.375 142.188 62.3795 142.188 53.75C142.188 45.1206 135.192 38.125 126.562 38.125C117.933 38.125 110.938 45.1206 110.938 53.75C110.938 62.3795 117.933 69.375 126.562 69.375Z" fill="#4AD600"/>
<path d="M126.562 74.0625C115.312 74.0625 106.25 65 106.25 53.75C106.25 42.5 115.312 33.4375 126.562 33.4375C137.812 33.4375 146.875 42.5 146.875 53.75C146.875 65 137.812 74.0625 126.562 74.0625ZM126.562 42.8125C120.469 42.8125 115.625 47.6563 115.625 53.75C115.625 59.8438 120.469 64.6875 126.562 64.6875C132.656 64.6875 137.5 59.8438 137.5 53.75C137.5 47.6563 132.656 42.8125 126.562 42.8125Z" fill="#4AD600"/>
<path d="M97.9688 139.688C91.0938 139.688 86.4063 133.75 82.1875 128.594C80.1563 125.938 77.0313 122.188 75.1563 121.719C73.9063 122.813 71.7188 125.938 69.8438 128.594C68.4375 130.469 66.875 132.656 65.1563 134.844C63.5938 136.875 60.625 137.188 58.5938 135.625C56.5625 134.063 56.25 131.094 57.8125 129.063C59.375 127.031 60.9375 124.844 62.3438 122.969C67.1875 116.406 69.6875 112.813 73.5938 112.344C80.625 111.406 85.3125 117.344 89.5313 122.656C92.3438 126.094 95.9375 130.469 98.2813 130.313C100 130.156 102.188 127.969 104.375 125.938C107.813 122.656 112.188 118.438 118.281 119.063C120 119.219 121.719 119.688 123.438 120.625C125.781 121.719 126.719 124.531 125.625 126.875C124.531 129.219 121.719 130.156 119.375 129.063C118.594 128.75 117.969 128.438 117.5 128.438C115.781 128.281 113.438 130.469 111.094 132.813C107.969 135.781 104.531 139.219 99.5313 139.688C98.9063 139.688 98.4375 139.688 97.9688 139.688Z" fill="#444B54"/>
<path d="M137.5 139.062C140.089 139.062 142.188 136.964 142.188 134.375C142.188 131.786 140.089 129.688 137.5 129.688C134.911 129.688 132.812 131.786 132.812 134.375C132.812 136.964 134.911 139.062 137.5 139.062Z" fill="#444B54"/>
</svg>
