<svg width="40" height="40" viewBox="0 0 40 40" fill="none" xmlns="http://www.w3.org/2000/svg">
<path d="M30.385 6.02995C26.5317 8.92328 22.41 14.5416 20.4717 18.1033C20.2667 18.48 19.7317 18.48 19.5267 18.1033C17.5884 14.5416 13.4667 8.92328 9.61336 6.02995C6.58169 3.75328 1.66669 1.99161 1.66669 7.59828C1.66669 8.71828 2.30835 17.0033 2.68502 18.35C3.69502 21.965 6.77502 23.4983 10.08 23.675C10.3967 23.6916 10.45 24.11 10.1517 24.215C5.17169 25.9616 4.28835 29.5416 7.77836 33.1216C14.155 39.6116 17.4684 34.2 19 30.5983C19.3734 29.7233 20.6284 29.7233 21 30.5983C22.5334 34.2 25.845 39.6116 32.2217 33.1216C35.71 29.5416 34.8284 25.9616 29.8484 24.215C29.55 24.11 29.605 23.6933 29.92 23.675C33.225 23.4983 36.3034 21.965 37.315 18.35C37.6917 17.005 38.3334 8.71828 38.3334 7.59828C38.3334 1.99161 33.4184 3.75328 30.385 6.02995Z" fill="#41D976"/>
</svg>
