<svg width="200" height="200" viewBox="0 0 200 200" fill="none" xmlns="http://www.w3.org/2000/svg">
<path d="M190.625 30.9375H15.625V169.062H190.625V30.9375Z" fill="#F7F7F7"/>
<path d="M173.531 70.5938H32.7188V169.062H173.531V70.5938Z" fill="#41D976"/>
<path d="M157.188 103.5H101.094V156.594H157.188V103.5Z" fill="#F7F7F7"/>
<path d="M77.625 145.281H44.2812V156.594H77.625V145.281Z" fill="#DCF28D"/>
<path d="M54.3437 93.6875C58.1234 93.6875 61.1875 90.6235 61.1875 86.8438C61.1875 83.0641 58.1234 80 54.3437 80C50.564 80 47.5 83.0641 47.5 86.8438C47.5 90.6235 50.564 93.6875 54.3437 93.6875Z" fill="#F7F7F7"/>
<path d="M190.625 30.9375H177.875V169.062H190.625V30.9375Z" fill="#E6E5E1"/>
<path d="M15.625 30.9375V53.2812H190.625V30.9375H15.625Z" fill="#07734B"/>
<path d="M177.875 30.9375V53.2812H190.625V30.9375H177.875Z" fill="#4AD600"/>
<path d="M173.531 70.5938H163.031V169.062H173.531V70.5938Z" fill="#B0F566"/>
<path d="M190.625 27.8125H15.625C13.8991 27.8125 12.5 29.2116 12.5 30.9375V169.062C12.5 170.788 13.8991 172.187 15.625 172.187H190.625C192.351 172.187 193.75 170.788 193.75 169.062V30.9375C193.75 29.2116 192.351 27.8125 190.625 27.8125ZM187.5 34.0625V50.1562H18.75V34.0625H187.5ZM35.8438 165.937V73.7188H170.406V165.937H35.8438ZM176.656 165.937V70.5938C176.656 68.8679 175.257 67.4688 173.531 67.4688H32.7188C30.9929 67.4688 29.5938 68.8679 29.5938 70.5938V165.937H18.75V56.5625H187.5V165.937H176.656Z" fill="#292B45"/>
<path d="M164.719 45.2188C166.445 45.2188 167.844 43.8196 167.844 42.0938C167.844 40.3679 166.445 38.9688 164.719 38.9688C162.993 38.9688 161.594 40.3679 161.594 42.0938C161.594 43.8196 162.993 45.2188 164.719 45.2188Z" fill="#292B45"/>
<path d="M174.438 45.2188C176.163 45.2188 177.562 43.8196 177.562 42.0938C177.562 40.3679 176.163 38.9688 174.438 38.9688C172.712 38.9688 171.312 40.3679 171.312 42.0938C171.312 43.8196 172.712 45.2188 174.438 45.2188Z" fill="#292B45"/>
<path d="M154.969 45.2188C156.695 45.2188 158.094 43.8196 158.094 42.0938C158.094 40.3679 156.695 38.9688 154.969 38.9688C153.243 38.9688 151.844 40.3679 151.844 42.0938C151.844 43.8196 153.243 45.2188 154.969 45.2188Z" fill="#292B45"/>
<path d="M38.9375 45.2188H117.562C119.288 45.2188 120.688 43.8196 120.688 42.0938C120.688 40.3679 119.288 38.9688 117.562 38.9688H38.9375C37.2116 38.9688 35.8125 40.3679 35.8125 42.0938C35.8125 43.8196 37.2116 45.2188 38.9375 45.2188Z" fill="#292B45"/>
<path d="M157.187 100.375H101.094C99.3679 100.375 97.9688 101.774 97.9688 103.5V156.625C97.9688 158.351 99.3679 159.75 101.094 159.75H157.187C158.913 159.75 160.312 158.351 160.312 156.625V103.5C160.312 101.774 158.913 100.375 157.187 100.375ZM154.062 153.5H104.219V106.625H154.062V153.5Z" fill="#292B45"/>
<path d="M81.9687 104.438H45.875C44.1491 104.438 42.75 105.837 42.75 107.562C42.75 109.288 44.1491 110.688 45.875 110.688H81.9687C83.6946 110.688 85.0937 109.288 85.0937 107.562C85.0937 105.837 83.6946 104.438 81.9687 104.438Z" fill="#292B45"/>
<path d="M81.9687 115.125H45.875C44.1491 115.125 42.75 116.524 42.75 118.25C42.75 119.976 44.1491 121.375 45.875 121.375H81.9687C83.6946 121.375 85.0937 119.976 85.0937 118.25C85.0937 116.524 83.6946 115.125 81.9687 115.125Z" fill="#292B45"/>
<path d="M81.9687 125.781H45.875C44.1491 125.781 42.75 127.18 42.75 128.906C42.75 130.632 44.1491 132.031 45.875 132.031H81.9687C83.6946 132.031 85.0937 130.632 85.0937 128.906C85.0937 127.18 83.6946 125.781 81.9687 125.781Z" fill="#292B45"/>
<path d="M77.625 142.156H44.2812C42.5554 142.156 41.1562 143.555 41.1562 145.281V156.562C41.1562 158.288 42.5554 159.687 44.2812 159.687H77.625C79.3509 159.687 80.75 158.288 80.75 156.562V145.281C80.75 143.555 79.3509 142.156 77.625 142.156ZM74.5 153.437H47.4062V148.406H74.5V153.437Z" fill="#292B45"/>
<path d="M54.3437 96.875C58.3785 96.875 62.0155 94.4428 63.5566 90.7139C65.0977 86.985 64.2391 82.6948 61.3816 79.8463C58.5241 76.9977 54.2312 76.1525 50.5071 77.7054C46.7831 79.2582 44.3623 82.9027 44.375 86.9375C44.3922 92.4309 48.8503 96.8751 54.3437 96.875ZM54.3437 83.2188C56.3975 83.2188 58.0625 84.8837 58.0625 86.9375C58.0625 88.9914 56.3975 90.6563 54.3437 90.6563C52.2899 90.6563 50.625 88.9914 50.625 86.9375C50.5997 85.9351 50.9803 84.965 51.6805 84.2472C52.3806 83.5294 53.341 83.1247 54.3437 83.125V83.2188Z" fill="#292B45"/>
<path d="M115.031 89.9688H120.5C122.226 89.9688 123.625 88.5696 123.625 86.8438C123.625 85.1179 122.226 83.7188 120.5 83.7188H115.031C113.305 83.7188 111.906 85.1179 111.906 86.8438C111.906 88.5696 113.305 89.9688 115.031 89.9688Z" fill="#292B45"/>
<path d="M133.344 89.9688H138.844C140.57 89.9688 141.969 88.5696 141.969 86.8438C141.969 85.1179 140.57 83.7188 138.844 83.7188H133.344C131.618 83.7188 130.219 85.1179 130.219 86.8438C130.219 88.5696 131.618 89.9688 133.344 89.9688Z" fill="#292B45"/>
<path d="M157.187 83.7188H151.687C149.962 83.7188 148.562 85.1179 148.562 86.8438C148.562 88.5696 149.962 89.9688 151.687 89.9688H157.187C158.913 89.9688 160.312 88.5696 160.312 86.8438C160.312 85.1179 158.913 83.7188 157.187 83.7188Z" fill="#292B45"/>
<path d="M89.4063 83.7188H71.3438C69.6179 83.7188 68.2188 85.1179 68.2188 86.8438C68.2188 88.5696 69.6179 89.9688 71.3438 89.9688H89.4063C91.1321 89.9688 92.5313 88.5696 92.5313 86.8438C92.5313 85.1179 91.1321 83.7188 89.4063 83.7188Z" fill="#292B45"/>
</svg>
