<svg width="40" height="40" viewBox="0 0 40 40" fill="none" xmlns="http://www.w3.org/2000/svg">
<path d="M6.39998 2.40771C3.62398 2.40771 1.60779 4.07128 1.60779 6.35928C1.60779 8.65527 3.67198 10.3921 6.39998 10.3921C9.17598 10.3921 11.1922 8.6964 11.1922 6.3124C11.0642 4.0164 9.08798 2.40771 6.39998 2.40771ZM2.39998 11.9999C1.95998 11.9999 1.59998 12.3599 1.59998 12.7999V35.9999C1.59998 36.4399 1.95998 36.7999 2.39998 36.7999H10.4C10.84 36.7999 11.2 36.4399 11.2 35.9999V12.7999C11.2 12.3599 10.84 11.9999 10.4 11.9999H2.39998ZM14.4 11.9999C13.96 11.9999 13.6 12.3599 13.6 12.7999V35.9999C13.6 36.4399 13.96 36.7999 14.4 36.7999H21.6C22.0416 36.7999 22.4 36.4415 22.4 35.9999V23.9999V23.7999V23.5999C22.4 21.7039 23.8565 20.1595 25.7125 20.0155C25.8085 19.9995 25.904 19.9999 26 19.9999C26.096 19.9999 26.1915 19.9995 26.2875 20.0155C28.1435 20.1595 29.6 21.7039 29.6 23.5999V35.9999C29.6 36.4415 29.9584 36.7999 30.4 36.7999H37.6C38.04 36.7999 38.4 36.4399 38.4 35.9999V22.3999C38.4 17.2239 35.6232 11.9999 29.4312 11.9999C26.6152 11.9999 24.488 13.0881 23.2 13.9921V12.7999C23.2 12.3599 22.84 11.9999 22.4 11.9999H14.4Z" fill="#41D976"/>
</svg>
