<svg width="40" height="40" viewBox="0 0 40 40" fill="none" xmlns="http://www.w3.org/2000/svg">
<path d="M28 4L24 8L32 16L36 12L28 4ZM21.4271 10.6745C20.7766 10.6555 20.1177 10.8741 19.5937 11.3281L19.5911 11.3229C18.1805 12.7336 16 13.3333 13.3333 13.3333C11.1467 13.3333 9.69756 14.6799 8.93489 17.2265C6.64956 24.8625 4.86835 30.3023 4.26301 32.1823L4.27083 32.1849C4.10149 32.5329 4 32.92 4 33.3333C4 33.5706 4.04163 33.7956 4.09896 34.0156L14.7656 23.3489C14.7083 23.1289 14.6667 22.904 14.6667 22.6666C14.6667 21.1933 15.86 20 17.3333 20C18.0693 20 18.7361 20.2986 19.2187 20.7812C19.7014 21.2639 20 21.9306 20 22.6666C20 24.14 18.8067 25.3333 17.3333 25.3333C17.096 25.3333 16.871 25.2917 16.651 25.2344L5.98437 35.901C6.20437 35.9583 6.42933 36 6.66667 36C7.08 36 7.46711 35.8997 7.81511 35.7317L7.81771 35.737C9.6977 35.1316 15.1374 33.353 22.7734 31.0677C25.3201 30.3037 26.6667 28.8533 26.6667 26.6667C26.6667 24 27.2664 21.8195 28.6771 20.4088L28.6719 20.4062C29.5799 19.3582 29.5481 17.7759 28.5521 16.7812L25.8854 14.1146L23.2187 11.4479C22.7207 10.9499 22.0776 10.6935 21.4271 10.6745Z" fill="#41D976"/>
</svg>
