<svg width="40" height="40" viewBox="0 0 40 40" fill="none" xmlns="http://www.w3.org/2000/svg">
<path d="M20 5.3335C14.4187 5.3335 7.1745 6.73194 7.1745 6.73194L7.15627 6.75278C4.61425 7.15932 2.66669 9.34367 2.66669 12.0002V20.0002V20.0028V28.0002V28.0028C2.67181 30.6236 4.58042 32.8524 7.16928 33.2606L7.1745 33.2684C7.1745 33.2684 14.4187 34.6694 20 34.6694C25.5813 34.6694 32.8255 33.2684 32.8255 33.2684L32.8281 33.2658C35.42 32.8584 37.3306 30.6264 37.3333 28.0028V28.0002V20.0028V20.0002V12.0002C37.3295 9.37833 35.4206 7.14814 32.8307 6.73976L32.8255 6.73195C32.8255 6.73195 25.5813 5.3335 20 5.3335ZM16 13.8647L26.6667 20.0002L16 26.1356V13.8647Z" fill="#41D976"/>
</svg>
