<svg width="200" height="200" viewBox="0 0 200 200" fill="none" xmlns="http://www.w3.org/2000/svg">
<path d="M193.75 198.438H6.25V21.875C6.25 13.2812 13.2812 6.25 21.875 6.25H178.125C186.719 6.25 193.75 13.2812 193.75 21.875V198.438Z" fill="white"/>
<path d="M6.25 198.438C3.59375 198.438 1.5625 196.406 1.5625 193.75V64.0625C1.5625 61.4062 3.59375 59.375 6.25 59.375C8.90625 59.375 10.9375 61.4062 10.9375 64.0625V193.75C10.9375 196.406 8.90625 198.438 6.25 198.438Z" fill="#444B54"/>
<path d="M193.75 198.438C191.094 198.438 189.062 196.406 189.062 193.75V21.875C189.062 15.7812 184.219 10.9375 178.125 10.9375H21.875C15.7812 10.9375 10.9375 15.7812 10.9375 21.875V39.0625H134.375C137.031 39.0625 139.062 41.0938 139.062 43.75C139.062 46.4062 137.031 48.4375 134.375 48.4375H6.25C3.59375 48.4375 1.5625 46.4062 1.5625 43.75V21.875C1.5625 10.625 10.625 1.5625 21.875 1.5625H178.125C189.375 1.5625 198.438 10.625 198.438 21.875V193.75C198.438 196.406 196.406 198.438 193.75 198.438Z" fill="#444B54"/>
<path d="M25 29.6875C27.5888 29.6875 29.6875 27.5888 29.6875 25C29.6875 22.4112 27.5888 20.3125 25 20.3125C22.4112 20.3125 20.3125 22.4112 20.3125 25C20.3125 27.5888 22.4112 29.6875 25 29.6875Z" fill="#444B54"/>
<path d="M40.625 29.6875C43.2138 29.6875 45.3125 27.5888 45.3125 25C45.3125 22.4112 43.2138 20.3125 40.625 20.3125C38.0362 20.3125 35.9375 22.4112 35.9375 25C35.9375 27.5888 38.0362 29.6875 40.625 29.6875Z" fill="#444B54"/>
<path d="M56.25 29.6875C58.8388 29.6875 60.9375 27.5888 60.9375 25C60.9375 22.4112 58.8388 20.3125 56.25 20.3125C53.6612 20.3125 51.5625 22.4112 51.5625 25C51.5625 27.5888 53.6612 29.6875 56.25 29.6875Z" fill="#444B54"/>
<path d="M68.75 173.438H40.625V193.75H68.75V173.438Z" fill="white"/>
<path d="M115.625 157.812H87.5V193.75H115.625V157.812Z" fill="white"/>
<path d="M162.5 126.562H134.375V193.75H162.5V126.562Z" fill="white"/>
<path d="M173.438 189.062H167.188V126.562C167.188 123.906 165.156 121.875 162.5 121.875H134.375C131.719 121.875 129.688 123.906 129.688 126.562V189.062H120.312V157.812C120.312 155.156 118.281 153.125 115.625 153.125H87.5C84.8438 153.125 82.8125 155.156 82.8125 157.812V189.062H73.4375V173.438C73.4375 170.781 71.4062 168.75 68.75 168.75H40.625C37.9688 168.75 35.9375 170.781 35.9375 173.438V189.062H29.6875C27.0312 189.062 25 191.094 25 193.75C25 196.406 27.0312 198.438 29.6875 198.438H173.438C176.094 198.438 178.125 196.406 178.125 193.75C178.125 191.094 176.094 189.062 173.438 189.062ZM45.3125 189.062V178.125H64.0625V189.062H45.3125ZM92.1875 189.062V162.5H110.938V189.062H92.1875ZM139.062 189.062V131.25H157.812V189.062H139.062Z" fill="#07734B"/>
<path d="M40.625 146.875C38.125 146.875 36.0937 145 35.9375 142.5C35.7812 139.844 37.6562 137.656 40.3125 137.5C84.8437 134.531 139.531 100.937 157.969 42.3436C158.75 39.8436 161.406 38.4374 163.906 39.2186C166.406 39.9999 167.812 42.6561 167.031 45.1561C147.187 107.656 88.5937 143.75 40.9375 146.875C40.7812 146.875 40.7812 146.875 40.625 146.875Z" fill="#07734B"/>
</svg>
