<svg width="500" height="55" viewBox="0 0 500 55" fill="none" xmlns="http://www.w3.org/2000/svg">
<g clip-path="url(#clip0_22_15)">
<path d="M23.9035 11.6087H7.22877V23.1869H23.3113V30.0236H7.22877V52.9658H0V4.77197H23.9035V11.6087Z" fill="#2C2C2C"/>
<path d="M37.2828 22.5598V40.0111C37.2828 45.0431 39.2571 47.5667 43.2056 47.5667C47.154 47.5667 49.1283 45.0431 49.1283 40.0111V22.5598H56.0989V40.1641C56.0989 42.5959 55.7952 44.7066 55.2029 46.4655C54.6258 48.0409 53.6235 49.4786 52.196 50.7481C49.8421 52.8128 46.8503 53.8376 43.2056 53.8376C39.5608 53.8376 36.5994 52.8128 34.2455 50.7481C32.8028 49.4786 31.7701 48.0562 31.1779 46.4655C30.6008 45.0431 30.3122 42.9477 30.3122 40.1641V22.5598H37.2828Z" fill="#2C2C2C"/>
<path d="M71.8777 0.244717V52.9658H64.9071V0.244717H71.8777Z" fill="#2C2C2C"/>
<path d="M87.6868 0.244717V52.9658H80.7162V0.244717H87.6868Z" fill="#2C2C2C"/>
<path d="M158.82 29.1212V52.9658H151.85V29.1212H148.873V22.5598H151.85V11.4099H158.82V22.5598H164.242V29.1212H158.82Z" fill="#2C2C2C"/>
<path d="M191.805 22.5598H198.806V52.9658H191.805V49.7845C188.935 52.4917 185.837 53.8376 182.542 53.8376C179.246 53.8376 174.918 52.3234 172.184 49.2798C169.481 46.1749 168.13 42.3053 168.13 37.671C168.13 33.0367 169.481 29.3201 172.184 26.2764C174.888 23.2328 178.274 21.7186 182.344 21.7186C186.414 21.7186 189.011 23.1716 191.805 26.0929V22.5598ZM175.252 37.671C175.252 40.5923 176.027 42.963 177.576 44.7831C179.17 46.6338 181.175 47.5667 183.589 47.5667C186.004 47.5667 188.252 46.6796 189.846 44.8749C191.441 43.0242 192.231 40.6688 192.231 37.824C192.231 34.9791 191.441 32.6237 189.846 30.7731C188.252 28.9683 186.186 28.0506 183.65 28.0506C181.114 28.0506 179.246 28.9683 177.636 30.8037C176.042 32.6543 175.252 34.9486 175.252 37.671Z" fill="#2C2C2C"/>
<path d="M231.108 23.8751V33.2049C229.513 31.2472 228.086 29.9013 226.825 29.1824C225.58 28.433 224.122 28.0659 222.452 28.0659C219.824 28.0659 217.653 28.9989 215.906 30.8496C214.175 32.7002 213.309 35.025 213.309 37.8087C213.309 40.5923 214.145 43.0089 215.815 44.829C217.516 46.6643 219.673 47.582 222.3 47.582C224.927 47.582 225.443 47.215 226.734 46.4961C227.98 45.7925 229.437 44.416 231.108 42.3818V51.6504C228.283 53.134 225.443 53.8682 222.619 53.8682C217.941 53.8682 214.038 52.354 210.895 49.3103C207.751 46.2514 206.187 42.4583 206.187 37.9157C206.187 33.3732 207.782 29.5495 210.956 26.4294C214.145 23.3092 218.048 21.7492 222.68 21.7492C227.311 21.7492 228.466 22.468 231.108 23.9057V23.8751Z" fill="#2C2C2C"/>
<path d="M246.477 0.244717V32.3943L256.302 22.5598H265.657L252.551 35.3309L266.629 52.9658H257.578L247.601 40.1335L246.492 41.25V52.9505H239.521V0.244717H246.492H246.477Z" fill="#2C2C2C"/>
<path d="M286.311 23.3857H306.949V4.52725H314.178V52.7211H306.949V30.2072H286.311V52.7211H279.082V4.52725H286.311V23.3857Z" fill="#2C2C2C"/>
<path d="M322.895 37.3039C322.895 32.9143 324.459 29.1824 327.573 26.0929C330.686 23.0186 334.498 21.4739 338.978 21.4739C343.458 21.4739 347.3 23.0186 350.443 26.1235C353.542 29.2283 355.091 33.0367 355.091 37.5487C355.091 42.0606 353.526 45.9302 350.413 49.0044C347.269 52.0634 343.412 53.5929 338.856 53.5929C334.3 53.5929 330.534 52.0328 327.481 48.9127C324.429 45.8384 322.895 41.9689 322.895 37.3039ZM330.018 37.4263C330.018 40.47 330.823 42.8712 332.432 44.6301C334.088 46.4196 336.259 47.322 338.978 47.322C341.696 47.322 343.883 46.4349 345.523 44.676C347.148 42.9018 347.968 40.5464 347.968 37.5945C347.968 34.6427 347.148 32.272 345.523 30.5131C343.868 28.7236 341.696 27.8212 338.978 27.8212C336.259 27.8212 334.148 28.7236 332.493 30.5131C330.838 32.3026 330.018 34.6121 330.018 37.4416V37.4263Z" fill="#2C2C2C"/>
<path d="M365.053 22.3151L372.95 39.6746L381.469 19.5467L390.05 39.6746L397.856 22.3151H405.662L389.852 55L381.454 35.4227L372.965 55L357.186 22.3151H365.022H365.053Z" fill="#2C2C2C"/>
<path d="M431.63 22.3151H438.631V52.7211H431.63V49.5398C428.76 52.2469 425.662 53.5929 422.367 53.5929C419.071 53.5929 414.743 52.0787 412.009 49.035C409.306 45.9302 407.955 42.0606 407.955 37.4263C407.955 32.792 409.306 29.0754 412.009 26.0317C414.713 22.988 418.099 21.4739 422.169 21.4739C426.239 21.4739 428.836 22.9269 431.63 25.8482V22.3151ZM415.077 37.4263C415.077 40.3476 415.852 42.7183 417.401 44.5384C418.995 46.389 421 47.322 423.415 47.322C425.829 47.322 428.077 46.4349 429.671 44.6301C431.266 42.7795 432.056 40.4241 432.056 37.5793C432.056 34.7344 431.266 32.379 429.671 30.5284C428.077 28.7236 426.011 27.8059 423.475 27.8059C420.939 27.8059 419.071 28.7236 417.461 30.559C415.867 32.4096 415.077 34.7038 415.077 37.4263Z" fill="#2C2C2C"/>
<path d="M447.44 22.3151H454.41V25.0375C455.686 23.6916 456.825 22.7586 457.827 22.2539C458.845 21.7339 460.044 21.4739 461.426 21.4739C462.808 21.4739 465.193 22.0704 467.197 23.2786L464.008 29.7024C462.687 28.7389 461.396 28.2647 460.135 28.2647C456.339 28.2647 454.425 31.1554 454.425 36.9369V52.7058H447.455V22.2998L447.44 22.3151Z" fill="#2C2C2C"/>
<path d="M492.999 0H500V52.7211H492.999V49.5398C490.25 52.2469 487.137 53.5929 483.675 53.5929C480.212 53.5929 476.112 52.0787 473.378 49.035C470.675 45.9302 469.323 42.0606 469.323 37.4263C469.323 32.792 470.675 29.1059 473.378 26.0623C476.066 23.0033 479.437 21.4739 483.507 21.4739C487.577 21.4739 490.205 22.9269 492.999 25.8482V0ZM476.446 37.4263C476.446 40.3476 477.22 42.7183 478.769 44.5384C480.364 46.389 482.368 47.322 484.783 47.322C487.198 47.322 489.445 46.4349 491.04 44.6301C492.635 42.7795 493.424 40.4241 493.424 37.5793C493.424 34.7344 492.635 32.379 491.04 30.5284C489.445 28.7236 487.38 27.8059 484.844 27.8059C482.308 27.8059 480.44 28.7236 478.83 30.559C477.235 32.4096 476.446 34.7038 476.446 37.4263Z" fill="#2C2C2C"/>
<path d="M144.348 0.244717H123.481V6.17909H144.348V0.244717Z" fill="#DCF28D"/>
<path d="M133.93 8.09093H113.063V14.0253H133.93V8.09093Z" fill="#6DF2B4"/>
<path d="M123.481 15.9524H104.513V21.8868H123.481V15.9524Z" fill="#41D976"/>
<path d="M133.914 23.7987H115.721V29.733H133.914V23.7987Z" fill="#41D976"/>
<path d="M144.348 31.6602H123.481V37.5946H144.348V31.6602Z" fill="#4AD600"/>
<path d="M133.914 39.5064H115.721V45.4408H133.914V39.5064Z" fill="#1BA665"/>
<path d="M125.38 47.3679H104.513V53.3023H125.38V47.3679Z" fill="#07734B"/>
</g>
<defs>
<clipPath id="clip0_22_15">
<rect width="500" height="55" fill="white"/>
</clipPath>
</defs>
</svg>
